<?xml version="1.0" encoding="UTF-8"?>
<svg xmlns="http://www.w3.org/2000/svg" version="1.1" viewBox="0 0 723.87 625.93">
  <g id="Isolation_Mode" data-name="Isolation Mode">
    <g>
      <path class="cls-1" fill="#8d2020" d="M653.8,377.2c-1.49-.53-2.97-1.14-4.5-1.33-.36-.05-.72-.09-1.08-.13.4.04,1.09.11,1.33.13.05,0,.1.02.16.03-.04,0-.08-.02-.12-.02.09,0,.09,0-.06-.02-.05,0-.11-.02-.19-.03-.01,0-.02,0-.03,0-.03,0-.05,0-.08,0-.94-.13-3.66-.5-10.07-1.17-3.4-.34-6.8-.67-10.2-1.05l-3.28-.41c.19.02.39.04.58.07-1.15-.14-2.26-.28-3.4-.43-.82-.13-2.24-.35-4.24-.66-3.31-.51-6.59-1.24-9.9-1.8-1.2-.22,4.45.76-2.2-.42-4.66-.74,4.46.75-3.25-.46-4.86-.66-3.44-.55-9.17-1.04-.81-.08.41,0,2.69.21-2.55-.24-5.94-.46-9.03-.5-3.08-.02-5.86.11-7.18.23-2.55.14-6.86.65-10.41,1.42-1.77.39-3.37.76-4.48,1.03-1.12.25-1.78.38-1.66.34-.78.12-3,.78-5.61.6-1.3-.1-2.63-.69-3.52-1.73-.89-1.03-1.5-2.24-1.97-3.31.44.98.7,1.43.77,1.52.07.09-.11-.17-.36-.71-.55-1.07-1.4-3.32-2.23-5.77-.73-2.51-2.27-4.98-3.75-6.38-1.45-1.43-2.57-2-2.06-1.73-.68-.44-1.55-.9-2.6-1.24-1.04-.37-2.3-.56-3.64-.48-1.34.07-2.75.54-4.09,1.15-1.37.6-2.76,1.31-4.14,2.1-2.77,1.58-5.52,3.5-8.17,5.36-2.01,1.3-3.81,2.83-5.42,4.34-.12.11-.24.22-.35.33-.45.43-.89.85-1.3,1.27.16-.16.39-.39.64-.63-1.52,1.45-2.64,2.52-3.63,3.46-.14.13-.28.26-.42.39-.03.01-.08.11-.08.04-.05-.29-.1-.58-.15-.87-.15-.83-.3-1.7-.48-2.7-.06-.2-.21-.95-.43-2.05-.2-1.1-.5-2.61-1.27-4.08-.73-1.48-1.87-2.91-3.22-3.97-1.34-1.08-2.86-1.77-4.17-2.1-1.91-.49-2.63-.39-2.58-.44.04-.01.82-.01,1.75.14.93.18,2,.5,2.66.82.67.28.95.47.41.13.04.03-.12-.05-.44-.18-.16-.07-.36-.15-.59-.25-.24-.08-.51-.17-.8-.27-1.18-.37-2.87-.59-4.43-.45-2.96.16-5.43,1.36-4.74,1.1-1.3.49-2.2,1.01-2.86,1.41-.7.43-1.14.77-1.52,1.04-.73.58-1.19.91-2.33,1.98-.72.8-3.64,4.23-6.75,8.05-2.79,3.28-3.17,3.68-3.61,4.17-.22.25-.45.52-1.01,1.18-.28.33-.64.76-1.11,1.33-.21.25-.45.54-.71.86-.03.04-.06.1-.09.02-.11-.15-.23-.3-.35-.46-1.28-1.83-.7-1.05.21.17l.15.2h0s0,0,.01-.01h0s-.08-.1-.08-.1c-.1-.14-.2-.27-.29-.39-.18-.24-.33-.46-.46-.64-.53-.73-.72-.99-.79-1.06-.13-.13.26.53-.34-.29-3.15-4.79-3.95-5.89-4.16-6.21-.22-.32.21.08-1.03-1.48-1.2-1.38-2.53-2.58-4.02-3.36-1.37-.75-2.67-1.58-3.39-2.69-.73-1.11-.54-2.5-.11-3.76.41-1.27,1-2.5,1.52-3.73.18-.36.6-1.31.14-.18,2.92-7,9.04-20.63,12.34-28.83.27-.6-.31.41-.25.12,1.69-3.97,2.67-6.22,2.22-5.07,0,0,1.97-4.61,1.19-2.71-.39.95,1.59-3.67,1.59-3.67,3.26-7.31,4.58-10.78,6.15-14.27.38-.85.81-1.78,1.21-2.59.02-.05.04-.09.09-.08.21,0,.42,0,.64-.01.53,0,1.08-.02,1.66-.03,2.3-.03,4.98-.06,8.41-.1,3.09-.14-1.02-.13,2.07-.28,19.51-.46,15.37.27,29.72-.17,1.85-.08,3.15-.22,5.25-.41,1.05-.09,2.3-.2,3.93-.35.81-.07,1.72-.14,2.74-.22.51-.04,1.05-.08,1.62-.12.15-.01.3-.02.45-.03.2-.02.4-.07.59-.16.38-.17.7-.49.89-.88-.15.37-.42.69-.78.9-.18.11-.38.18-.58.23l-.48.07-1.72.26c.41-.03.81-.06,1.19-.1.19-.02.37-.03.55-.04l.27-.02c.09,0,.26-.03.38-.06,1.09-.27,1.65-1.33,1.57-2.18-.06-.88-.65-1.57-1.34-1.82-.08-.03-.18-.06-.25-.08l-.17-.04c-.11-.02-.22-.05-.33-.07-.21-.04-.41-.08-.6-.12-1.54-.32-2.5-.49-3.49-.62-.99-.14-1.99-.31-3.62-.51-.82-.1-1.78-.26-2.99-.37-1.2-.14-2.64-.29-4.39-.43,1.25.02,3.87.24,5.93.48,2.05.27,3.54.48,2.54.32-1.12-.18-2.07-.32-2.87-.45-.81-.09-1.47-.16-2.04-.22-1.13-.12-1.87-.16-2.55-.17-1.35-.05-2.43-.05-5.91-.18l-1.44-.26c-7.13-.17-14.58.17-22.22.37-1.91.04-3.83.07-5.75.11-.96.02-1.93.02-2.9.02h-.7c-.35.09-.07-.21-.02-.37.79-1.61,1.59-3.23,2.39-4.86.85-1.77,1.69-3.54,2.54-5.31-.31.81-1.42,3.27.25,0,8.43-17.96,17.16-38.7,25.64-55.78.98-2.23,2.02-4.42,3.04-6.62.75-1.52,1.53-2.75.71-1.11,3.51-6.55.06-.4,1.63-3.61,1.94-3.76,2.77-4.85,1.52-2.48.77-1.45,1.62-3.05,2.53-4.76.82-1.46,1.69-3.02,2.59-4.64l.03-.06s.02-.04.05,0l.12.13.25.26s.64.73,1.25,1.02c1.24.66,2.88.55,4.02-.36.56-.43,1.01-1.11,1.21-1.69.26-.59.42-1.18.56-1.78.28-1.19.42-2.38.6-3.54.35-2.27.89-4.92-.37-7.34-.63-1.2-1.93-2.04-3.21-2.22-1.28-.21-2.49.01-3.61.31-2.22.58-4.29,1.68-5.83,3.14-.78.72-1.44,1.52-2,2.34-.5.81-.99,1.58-1.45,2.33.46-.79.87-1.54,1.36-2.37-5.67,9.25-5.92,10.66-11.14,19.21l.93-1.68c-5.95,10.08-11.91,20.9-17.05,31.33-5.13,10.44-9.95,20.25-13.89,28.26-.61,1.59-3.14,6.8-5.59,11.78-2.45,4.98-4.84,9.72-5.03,10.47-.18.35-.36.68-.53,1-.06.07-.07.22-.17.21-.1,0-.2,0-.3-.01-.71-.02-1.36-.03-1.97-.05-1.21-.03-2.23-.06-3.14-.08-1.81-.03-3.18-.06-4.71-.08-1.53-.02-3.24-.04-5.74-.07-1.25,0-2.7-.02-4.42-.03-.31,0-.64,0-.98,0h-.14s-.07,0-.07,0c0,0,.02-.04.03-.06.34-.61.7-1.27,1.1-1.99,2.4-4.42,3.38-6.69,6.3-12.18l.22-.05,3.86-7.51,2.31-3.86c.92-1.71,1.79-3.45,2.67-5.18-1.07,2.06-2.34,4.35-2.22,4.01,2.09-4.05,4.64-8.97,6.72-12.89,1.05-1.96,1.96-3.67,2.62-4.91.67-1.23,1.08-1.99,1.13-2.03l9.77-19.2c-.13.35-1.14,2.35-2.18,4.43,3.75-7.45.5-.62,4.91-9.42-.68,1.24.28-.72.36-.94.61-1.18,1.45-2.64,2.34-4.51.82-1.94,1.16-4.22,1.63-6.53.43-2.36.64-5.08-.57-7.5-.6-1.19-1.68-2.16-2.9-2.61-1.22-.46-2.47-.49-3.62-.4.29-.07.59-.05.89-.08.3-.02.6-.04.91,0-2.16-.23-4.22.38-6.19,1.11-1.98.79-3.79,2-5.35,3.51-.77.76-1.49,1.59-2.11,2.46-.62.85-1.25,1.71-1.88,2.57-1.26,1.72-2.53,3.46-3.81,5.21-2.55,3.51-5.1,7.1-7.51,10.83-2.44,3.71-4.61,7.66-6.69,11.63,3.05-5.67,2.47-4.3,0,.35l-1.07,1.81c-1.52,3.04,2.59-4.85-.58,1.37-3.09,5.94-2.18,3.95-.44.51l-3.69,7.27c-.25.41.6-1.3.8-1.76-1.48,3-6.41,12.52-8.43,16.9l-.23.4c-3.95,8.04-6.83,13.89-9.52,19.36-1.35,2.72-2.66,5.35-4.04,8.11-.62,1.31-1.19,2.66-1.81,4.14-.01.13-.15.1-.24.12l-.31.04-.62.08c-.42.04-.84.09-1.27.13-.86.08-1.74.14-2.65.19-.14.05-1.63.14-3.63.2-1,.03-2.13.06-3.28.09-1.19.06-2.33.25-3.41.35-1.33.11-2.69.22-4.02.09-.64-.07-1.38-.21-1.71-.63-.31-.41.14-1.08.4-1.72,1.16-2.58,2.39-5.2,3.68-7.87,2.58-5.34,5.41-10.86,8.39-16.6,4.16-8.08,1.17-2.38,3.02-6.02.38-.56,6.29-12.04,3.26-6.06,3.55-6.9,5.76-11.34,8.1-16.29,2.3-4.96,4.86-10.39,8.28-19.6-.76,1.99-1.65,4.22-1.22,3.05.63-1.67,1.35-3.56,1.88-4.98.55-1.41.93-2.34.86-2.1l-.33.88c1.94-5.14,4.28-10.66,5.28-16.71.21-1.52.34-3.06.26-4.61-.1-.77-.11-1.55-.38-2.33-.26-.76-.72-1.47-1.34-2-.62-.54-1.38-.88-2.16-1.06-.8-.19-1.59-.14-2.35-.14-1.54,0-3.08.12-4.6.31-3.04.4-5.98,1.35-8.6,2.76-2.6,1.44-4.86,3.32-6.78,5.33-1.93,2.01-3.53,4.16-4.98,6.21-1.31,1.86-2.58,3.6-3.71,5.28-3.37,4.9-6.69,9.84-9.87,14.86-4.54,7.03,2.67-4.25-.72.93-5.24,8.3-9.21,14.96-12.91,21.29-3.69,6.33-7.07,12.33-10.87,19.46-3.09,5.44-8.28,15.26-13.5,25.67-.65,1.3-1.31,2.61-1.96,3.92l-.98,1.96-.39.78c.08,0-.45.08-.77.13-1.44.23-2.86.45-4.28.67-1.41.19-2.83.39-4.2.6-5.5.86-10.58,1.77-14.74,2.54l.97-.12c-4.27.92-5.19,1-8.34,1.69.46-.05,4.65-.95,2-.33-2.65.58-5.3,1.21-7.95,1.92-1.32.36-2.65.74-3.96,1.17-1.31.44-2.62.9-3.9,1.6-.32.18-.63.38-.94.67-.15.14-.3.31-.43.56-.12.24-.15.63-.08.8.13.78.51,1.53,1.06,2.08.54.56,1.19.97,1.89,1.26.35.14.69.27,1.12.33.37.05.74.07,1.11.07,1.48-.02,2.91-.4,4.23-1,.66-.3,1.3-.66,1.89-1.09.61-.42,1.14-.98,1.61-1.35,1.01-.81,2.26-1.18,3.61-1.38l4.14-.59c2.77-.4,5.54-.8,8.31-1.2l4.17-.58,2.09-.29c.71-.11,1.34-.17,2.06-.23l4.21-.37c.7-.07,1.41-.15,2.12-.24l.82-.12c.06-.01.13-.02.18-.05.02-.01-.02.08-.03.12l-.7,2.17c-.3.92-.63,1.84-.95,2.76-.65,1.83-1.33,3.66-2.02,5.49-1.38,3.65-2.79,7.3-4.05,11.01-1.27,3.7-2.35,7.51-3.1,11.36-.75,3.71-2,7.32-3.91,10.54-1.7,2.91-3.13,4.56-4.15,5.82-1.06,1.23-1.79,2.03-2.61,2.89-.84.84-1.78,1.76-3.42,3.05-1.64,1.29-3.97,3-7.72,5.19,1.37-.9,2.72-1.84,4.03-2.82-5.67,3.97-11.99,7.13-18.36,10.22l-2.4,1.16c-.8.4-1.5.68-2.31.83-1.56.33-3.22.06-4.57-.74-.67-.41-1.27-.94-1.78-1.55-.49-.63-.88-1.34-1.18-2.09-.54-1.53-.81-3.3-1.02-5.03-.22-1.74-.35-3.52-.63-5.32-.29-1.79-.75-3.66-1.77-5.33-.53-.82-1.17-1.57-1.93-2.19-.77-.59-1.6-1.12-2.48-1.46-1.73-.71-3.54-1.16-5.41-1.25-1.87-.08-3.75.22-5.49.85-1.74.65-3.33,1.6-4.75,2.71-.71.56-1.38,1.16-2.02,1.78l-1.83,1.84c-1.21,1.23-2.43,2.45-3.63,3.66,1.12-1.19,1.11-1.27,3-3.16-2.11,1.98-5.91,5.75-9.17,9.05-1.62,1.66-3.12,3.19-4.22,4.31-.54.56-.99,1.03-1.29,1.36-.3.33-.47.53-.47.55-2.98,3.06-.78.63-2.66,2.47-2.05,2.05-4.51,4.69-6.94,6.84-1.21,1.07-2.42,2.02-3.5,2.76-.54.38-1.05.69-1.5.96-.47.29-.77.41-1.06.47-.18.03.09-.02.51-.25.13-.07.33-.19.52-.32-.15.09-.3.19-.45.28-.25.14-.55.26-.8.3-.3.04-.31.02-.36-.02-.03-.02-.04-.04-.06-.09-.03-.1-.06-.28-.08-.51-.03-.45-.07-.9-.1-1.35s-.07-.9-.1-1.34c-.03-.44,0-.88,0-1.3.02-.85-.02-1.64.05-2.32.05-.68.1-1.25.13-1.67.06-.83.04-1.01-.09-.13.57-5.01,2-9.68,3.66-13.96,1.68-4.28,3.66-8.18,5.71-11.69,1.19-2.38,3.5-6.1,5.69-9.36,2.17-3.29,4.19-6.06,4.59-6.83-.07.41,2.6-3.18,6.33-7.01,1.86-1.93,3.96-3.87,6.06-5.42,2.09-1.57,4.09-2.82,5.46-3.68-1.83,1.16,4.93-2.7,2.8-1.31.24-.14.48-.27.72-.41.05-.02.12-.1.12,0,.17.54.34,1.06.49,1.56.5,1.58.96,3.01,1.34,4.18.76,2.34,1.23,3.63,1.12,2.99l.69,2.46.18.61c.06.22.14.46.22.67.15.43.32.84.5,1.25.37.81.76,1.61,1.32,2.39.3.4.56.77,1.18,1.17.33.19.68.3,1.05.3.41,0,.6-.07.84-.09,1.91-.35,3.57-1.55,4.63-2.97,1.08-1.42,1.73-3,2.19-4.53.78-3.01,1.6-5.74,2-8.42.41-2.64.34-5.22-.59-7.3-.75-1.41-1.9-2.54-3.16-3.34-1.26-.81-2.62-1.37-3.97-1.77-2.66-.81-5.4-1.32-8.15-1.44-2.75-.1-5.5.21-8.11.89-2.62.69-5.09,1.77-7.39,3.1-2.3,1.35-4.36,2.88-6.43,4.4-2.06,1.54-4.03,3.16-5.95,4.83-3.83,3.34-7.35,6.95-10.56,10.77.07-.4,3.66-4.62,7.56-8.26,3.88-3.66,7.97-6.77,7.52-6.65-7.48,5.87-12.62,11.41-17.21,17.27-2.28,2.95-4.39,6.02-6.51,9.35-2.12,3.34-4.26,6.95-6.4,11.12-2.08,4,.62-1.61,1.66-3.6-4.43,8.18-7.87,16.55-10.29,24.96-1.31,4.23-2.07,8.86-1.13,13.3.44,2.21,1.35,4.37,2.86,6.14.78.85,1.66,1.63,2.69,2.17.98.53,1.95.95,2.95,1.35-.03,0-.47-.16-1.12-.42-.33-.12-.68-.3-1.06-.48-.12-.05-.24-.12-.36-.17,1.33.7,2.74,1.29,3.93,1.7,1.44.46,2.46.64,2.3.52-.54-.11-1.08-.25-1.61-.41-.54-.14-1.06-.33-1.58-.51-1.24-.55-1.05-.56-.09-.24.97.31,2.76.84,4.79,1.12,2.02.3,4.26.29,5.99.04,1.19-.17,2.13-.4,2.65-.55-1.77.6,2.15.01,5.32-1.71,1.68-.87,3.17-1.82,3.83-2.18.65-.36.49-.1-1.34,1.24,1.87-1.18,4.04-2.86,3.56-2.67,2.64-1.88,3.49-2.48.94-.38,4.74-3.61,6.08-4.97,7.42-6.12,1.31-1.2,2.54-2.21,6.63-5.71.03.09-1.58,1.54-2.38,2.33,2.05-1.81,4.02-3.69,6.31-5.88,1.15-1.09,2.37-2.27,3.72-3.56.68-.64,1.39-1.3,2.14-2,.24-.22.48-.44.74-.67l.16-.15.08-.07s.03-.03.04-.03l.02.05c.06.14.12.28.18.43-.07-.1-.06,0-.11-.04-.02-.02-.05-.06-.11-.18,0-.03-.02-.04-.03-.04l.03.07c.09.2.18.4.27.6.35.8.7,1.58,1.05,2.35.37.83.74,1.65,1.1,2.46.41.82.85,1.61,1.33,2.36,1.94,3,4.65,5.46,7.97,6.73,1.65.62,3.43.94,5.23.94,1.78-.02,3.54-.13,5.38-.25,3.66-.27,7.54-.68,11.75-1.5-2.45.66-1.01.45,1.16,0,2.17-.44,5.02-1.24,5.5-1.25,2.94-.95,5.82-2.13,8.58-3.53-1.14.49-2.28.99-3.45,1.4,1.88-.77,3.64-1.65,5.32-2.58,1.65-.95,3.26-1.88,4.84-2.79,1.58-.89,3.13-1.77,4.65-2.64.68-.37,1.35-.75,2.01-1.12.28-.29.38.11.53.32l.56.95-.4-.62-.26-.38-.12-.18-.06-.09s-.02-.03-.03-.04l-.05.03-.37.23-2.39,1.4,2.76-1.55c.11.05.19.25.28.37l.38.61c.33.53.64,1.06.95,1.6,1.25,2.15,2.42,4.38,3.83,6.5-1.56-2.43-2.8-4.99-4.2-7.43,2.08,3.46,2.05,3.25,2.16,3.29.06.03.14.13.54.81.42.67,1.06,1.96,2.61,4.16-.33-.43-.2-.24.23.34.44.57,1.19,1.54,2.26,2.47,1.09.92,2.42,1.83,3.8,2.5,1.36.68,2.72,1.17,3.74,1.47,1.97.44,4.02.58,6.29.42,2.27-.16,4.77-.67,7.57-1.71,1.48-.48-1.04.78-.07.47,1.8-.82,6.17-2.67,10.29-5.26,3.86-2.36,7.41-5.33,9.24-7.22-.74.79-.66.88-.29.58.78-.79,1.51-1.62,2.23-2.45,2.63-2.66,2.94-3.12,2.66-2.55,3.59-4.3,2.97-3.61,2.49-3.22-.23.21-.42.37,0-.14.21-.25.57-.67,1.17-1.32.52-.56,1.24-1.33,2.21-2.38-.26.3-.33.39-.46.56-.06.08-.15.18-.27.33-.16.18-.37.43-.69.78.54-.59,1.09-1.18,1.61-1.75.05-.09.06,0,.08.07l.05.19.09.37c.06.25.11.5.15.75.02.13.04.25.05.38l.06.54c.03.36.05.73.06,1.09.03,1.46-.13,2.92-.22,4.41-.16,2.95-.35,5.85-.54,8.73-.38,5.76-.76,11.41-.86,17.04-.15,1.81-.19-.87-.11-3.49.07-2.61.21-5.16-.02-3.1-.18,4.43-.3,8.9.07,13.51.13,1.18.47,2.36,1.03,3.44.54,1.09,1.38,2.05,2.4,2.74,1.02.69,2.23,1.12,3.46,1.18,1.23.05,2.44-.21,3.55-.67,1.1-.49,2.08-1.18,2.94-1.98.88-.81,1.55-1.8,2.09-2.84.53-1.04.92-2.16,1.08-3.33.07-.62.12-1.1.2-1.64.11-.53.22-1.06.38-1.58.58-2.11,1.5-4.17,1.71-6.45.1-1.12.03-2.33-.48-3.38-.48-1.05-1.24-1.95-2.13-2.61.88.66,1.62,1.55,2.09,2.58-.1-.22-.31-.46-.53-.76-.11-.15-.22-.32-.36-.48-.15-.15-.32-.31-.49-.49-.66-.7-1.71-1.38-2.82-1.98-.22-.08-.33-.3-.36-.52-.04-.21-.06-.52-.06-.8,0-.57.06-1.18.17-1.78.29-1.23.59-2.52.91-3.84.62-2.66,1.26-5.44,1.81-8.08-.45,2.06-.41,2.75-.32,2.18,1.34-5.69,2.69-11.48,4.94-17.81,1.08-3.18,2.29-6.53,3.31-10.24.51-1.85.93-3.8,1.27-5.83.35-2.01.78-4.09,1.4-6.2-.17.71-.35,1.41-.48,2.13.85-3.31,2.3-7.59,4.24-11.75,1.89-4.17,4.2-8.23,6.1-11.42,1.04-1.95,3.29-5.56,1.83-3.42.78-1.21,1.55-2.41,2.31-3.6.38-.6.76-1.19,1.14-1.79l.57-.89c.14-.25.41-.53.62-.8l1.31-1.64.32-.4c.08-.06.11-.21.22-.21l.9-.04c1.38-.05,2.76-.08,4.13-.1,5.49-.07,10.88,0,16.19-.02h.68s.17,0,.17,0c.04,0,.15-.03.1.05l-.12.31-.64,1.6c-.49,1.22-.98,2.44-1.46,3.66-.98,2.43-1.95,4.84-2.91,7.24-1.94,4.8-3.89,9.53-5.88,14.22.91-2.26,2.12-5.4,1.4-3.6-2.21,5.34-4.16,10.79-6.2,16.2.59-1.24.87-2.1,2.24-5.48-.24.69-.59,1.67-1,2.8-.62,1.6-1.24,3.2-1.85,4.81-.25.52-1.71,4.22-2.51,6.21.23-.52-.15.57-.01.32-1.77,4.4-1.78,4.61-2.03,5.45-.83,2.22-1.65,4.45-2.46,6.68-.11.28-.22.57-.34.88l.18-.63c-.79,2.18-1.65,4.23-2.21,6.44-.27,1.1-.51,2.25-.35,3.43.1.58.28,1.17.65,1.65.36.49.84.89,1.39,1.2.44.28.39.27.06.09-.34-.16-.94-.55-1.45-1.15-.51-.62-.73-1.49-.78-2.17-.07-.68.03-1.18,0-1.27-.11.88-.08,1.81.28,2.66.35.85,1.06,1.48,1.82,1.91,1.54.86,3.24,1.21,4.89,1.58,1.62.35,3.28,1,4.23,2.36.96,1.35,1.15,3.02,1.39,4.57-.27-1.45-.45-3.34-1.6-4.75-1.13-1.44-3-1.91-4.42-2.22,1.67.39,2.92.91,3.73,1.65.81.73,1.22,1.54,1.48,2.32.54,1.46.46,2.96,1.21,5.17.1.28.22.56.33.84-.06-.14-.14-.28-.19-.43.09.24.2.49.32.74.05.1.09.21.14.31.05.11.1.21.16.32-.03-.05-.05-.11-.07-.17.11.22.23.44.36.66-.06-.1-.13-.2-.18-.3.2.39.44.79.72,1.19-.06-.08-.1-.17-.16-.26.15.23.31.46.48.68-.06-.08-.12-.14-.18-.22.1.14.2.27.32.41.06.08.13.16.2.24.09.11.19.22.29.33-.06-.06-.11-.13-.16-.2.2.23.4.45.62.65-.03-.03-.06-.05-.09-.08.08.08.15.16.24.24,0,0,.01.02.02.02.21.19.42.37.65.54.03.02.05.05.08.07-.02-.02-.04-.04-.06-.06,1.13.87,2.47,1.47,3.87,1.75-.71-.15-1.4-.38-2.05-.68,1.04.43,2.14.69,3.27.76,1.13.04,2.25-.05,3.38-.15,2.27-.21,4.57-.57,6.94-1.1,2.37-.52,4.8-1.2,7.31-2.06,1.24-.46,2.57-.82,3.79-1.54.58-.35,1.14-.75,1.67-1.19-1.14.94-1.96,1.39-2.41,1.62-.67.3-.58.27-.18.11.84-.27,2.62-1.58,2.27-1.3,1.23-.91,2.58-2.27,3.53-3.24.96-.97,1.54-1.54,1.09-1.07.48-.5.95-.97,1.43-1.41l.2-.18c.05.04.1.11.15.17.2.25.4.49.6.74.81.97,1.67,1.88,2.63,2.79.48.45,1.01.88,1.55,1.33.58.41,1.15.88,1.83,1.27,1.32.83,2.89,1.62,4.83,2.09.17.06,1.65.39,2.97.43,1.31.03,2.41-.16,1.78-.04,1.84-.23,2.59-.59,2.77-.64.17-.08-.22.1-.84.25-1.23.41-3.37.43-3.05.4,1.41-.04,2.89-.3,4.31-.87,1.43-.56,2.79-1.37,4.2-2.17,2.81-1.62,5.73-3.45,8.75-5.4,3.02-1.96,6.16-4,9.39-6.1l.22-.14c.06-.01.07.06.13.13l.46.57c.3.39.62.75.94,1.12.64.74,1.32,1.46,2.03,2.15,1.42,1.38,2.98,2.66,4.69,3.74,1.47.93,2.88,1.64,4.22,2.14.66.28,1.32.44,1.94.65.63.15,1.24.31,1.83.41,2.37.43,4.42.36,6.41.23,3.53-.23,6.95-.65,12.13-1.38,1.05-.15,2.11-.29,3.16-.44,1.35-.17-4.62.68-4.62.68,6.65-.89,11.73-1.71,17.95-1.94-.5.02-.99.02-1.49.04-.66.04-1.25.07-1.59.08,1.8-.12,3.61-.18,5.42-.19-.64,0-1.27.04-1.91.06.31,0,1.27-.02,2.46-.01,2.36.01,3.32.06,4.27.1-.39-.02-.78-.05-1.16-.07.39.01.78.02,1.16.03,1.68.09,3.35.22,5.01.41,13.19,1.57,26.28,4.08,39.5,5.19-3.69-.26-7.02-.68-4.65-.37,2.1.21,3.4.32,4.75.43,1.35.1,2.75.16,5.01-.1.33-.04.65-.08.97-.13-1.5.21-3.03.33-4.6.29-1.34-.09-.04,0,.27-.02-.3-.02-.6-.03-.9-.05,5.25.33,10.66-1.4,16.02-2.42.78-.15,1.35-.84,1.33-1.69-.02-.69-.45-1.29-1.08-1.52ZM498.54,263.62c-.38.96,1.49-3.08,2.7-5.63-.95,2.1-2.14,4.71-3.39,7.47-.34.57-.1-.11.69-1.84ZM493.34,275.17h0c-.84,1.75-1.55,3.24-2.01,4.19.42-.87,1-2.08,2.01-4.19ZM357.68,300.43h-.01s0,0,0,0c0,0,.01,0,.02,0,0,0,0,0,0,0ZM357.73,300.37s-.02.02-.04.03c0,0,0,0,0,0,0,0,0,0,0,0,0,0,0,0,0,0,0,0,0,0,0,0,0,0,0,0,0,0,0,0,0,0,0,0,0,0,0,0,0,0,0,0,0,0,0,0,.02,0,.03-.02.04-.04h0ZM357.73,300.37s-.01.03-.04.03c0,0,0,0,0,0,.01-.01.04-.02.04-.04,0,0,0,0,0,0ZM413.71,236.1c0-.1-.2.22-.36.4.09-.17.19-.38.31-.61.09-.02.12.06.05.21ZM414.04,235.09h0c.07-.15.12-.27.16-.35-.03.07-.08.17-.16.35ZM422.85,208.95c-.12.18-.24.36-.36.55-.07.08-.12.13-.1.09.15-.21.31-.42.46-.63ZM420.3,212.49s-.07.14-.21.36l-.15.14c.12-.17.24-.34.36-.5ZM411.53,225.52c.03.06,0,.19-.15.49-.04,0-.09-.02-.12-.06.09-.14.18-.29.27-.44ZM380.33,287.82c.51-1.03-.23-.81.61-2.03v.45c.77-2.2,2.02-4.3,2.77-6.45,0,.14.05.18-.04.38.36-.37.76-1.6.64-1.67.16-.31.15-.02.31-.19.3-.39.31-1.18.58-1.35.04-.03,0,.15-.03.23.06-.32.64-1.31.33-1.13.45-.73.6-1.52,1.01-2.08-.02-.5.73-1.27.49-1.54.28.2.9-1.23.98-1.79.02.21.3-.38.34-.12.26-.56.45-1.09.24-1.07.88-.84.69-2.19,1.47-2.53.64-1.72,1.24-3.31,1.91-4.81.31.22-.78,1.64-.4,1.75.56-1.46.68-2.41,1.45-3.75.23-.33.05.28.04.43.57-1.46,1.38-2.68,1.84-4,.03.02,0,.17-.04.31.11-.25.34-.54.17-.59l-.08.26c-.43.27.02-1.21-.08-1.31.24.65.74-1.16.98-.21.05-.18.08-.41-.04-.43.15-.22.25-.26.25.04.36-.91.03-.69.44-1.48.08.04.02.22.07.35.06-.48.11-.96.52-1.59.03.06.12.02.02.22.58-1.15.63-2.15,1.44-3.31.14.54.33-.37.66-.28l.27-.72-.28.19c.32-.58.39-1.22.75-1.67l-.12.5.54-1.12-.45.56c.18-.67-.39-.13.12-.86-.06.17.33-.58.66-.79h0c.07-.33.14-.68.45-1.08.15-.06.26.26.36.22-.07-.41.69-1.4.64-1.9,0,.15.13.24.18.22l-.05-.34c.21-.24.26-.26.35-.15.48-.79-.49.06.19-.82-.03.08.02.06-.04.24.62-.92.94-1.92,1.54-2.75.41-.11-.38.81.02.64.68-1.3,1.18-2.82,1.95-4l-.16.21c-.25-.37.71-.81.91-1.52-.06.17.07.31.06.25.54-.8.92-1.76,1.57-3.09v.21c.34-.45.79-1.27,1.15-1.78.02-.2.22-.5,0-.38,1.39-1.38,1.69-3.23,2.89-4.47-.11.17-.21.44-.12.3l.71-1.25c-.15.04-.16.12-.39.33.04-.19.22-.56.42-.86-.29.58.15.09.35-.12-.05.02-.03-.08-.07-.08.56-.53-.1-.22.56-1.01v.07c.2-.34.34-.67.58-1.01.18-.09-.18.37-.12.44.31-.5.46-1.07.83-1.46-.12.22-.29.52-.41.75.41-.42.42-.49.66-.84h0s0,0,0,0l.32-.42c-.06.07-.11.14-.15.2l.39-.54-.16.19c.22-.73.79-1.26,1.23-2.15-.44.86-.03.17,0,.28.16-.2.39-.5.35-.4.2-.42.46-.62.75-1.22.04-.01.28-.41.26-.29.32-.51-.11.1-.11.04.45-.82,1.29-1.76,1.99-2.91.59-.89.71-1.13,1.2-1.86.06-.08.11-.16.17-.24.11-.13-.18.32-.18.32.35-.46.6-.82.91-1.28-.06.1.02,0,.12-.12.26-.36.14-.26.5-.72-.05.09-.11.2-.23.38.3-.42.6-.85.91-1.28.1-.1-.17.27-.28.43.35-.49.92-1.26,1.02-1.43l-.24.3c.13-.18.08-.08,0,.06-.29.43-.45.59-.48.61l.23-.31c-.28.28-.92,1.23-1.38,1.85l.13-.23c1.16-1.58,2.34-3.15,3.54-4.7.01-.02.03-.02.04-.04-.02.04-.02.06-.02.07-.03.04-.08.09-.15.19l-.11.19.27-.38s0,0,0,0c.06-.03.17-.26.69-.34.26-.04.53.04.73.21.06.06.11.13.15.2-.01-.02-.03-.03-.04-.04.06.07.11.15.15.23.01.06.04.17.04.32.03.25-.08.5-.17.77-.05.09.1-.36-.1.16-.12.37.17-.34-.05.27-.16.38-.13.26-.29.71-.03.06,0-.04.06-.22-.14.4-.39,1.06-.44,1.27-.17.39-.5,1.35-.53,1.29-.04.13-.23.71-.38,1.08.21-.68-.55,1.35-.56,1.14-.14.51-.74,1.75-1.13,2.6.02-.05.05-.15.09-.22-.25.47-.34.59-.51.88.04.1-.31.84-.46,1.26-.37.54.08-.4-.09-.25.08,0-.45,1.03-.29.86-.28.41-.22.37-.41.56.08.13-.19.42-.3.82-.39.61-.21.1-.53.82-.22.31.06-.33.06-.33-.38.71-.07.38-.09.56-.4.86-.28.35-.49.62-.25.54-.35,1-.56,1.39-.04.02-.08.09-.06,0-.19.61-.86,1.66-1.05,2.38-.04.04-.06.06-.08.07.13-.07.21-.05.25,0-.16.32-.2.64-.36.72.1-.2.07-.23.08-.34l-.12.36c-.3.23.18-.48.08-.53-.29.67-.54,1.5-.84,1.98-.21.03.54-1.2.07-.59l.45-.75c-.53.48.26-.46-.26-.04-.58.99-.52,1.17-1.09,2.16-.03.27.17-.01.15.26-.56,1.53-1.01.93-1.32,2.1-.02.33.16.55-.34,1.25l-.08-.36c-.52.98.02.71-.64,1.68,0-.23.32-.81.22-.67-.51.59-.12.53-.37,1.05h-.25c-.5,1.08-.93,2.31-1.47,3.5-.03-.1,0-.33-.2-.09-.62,1.53-1.58,3.14-2.4,4.5l-.07.64c-.06.13-.2.19-.17.04-.34.52.11.09.06.39-.14.32-.31.36-.27.13-.31,1.06-.99,2.98-1.69,3.91l.04-.23c-.46.77-.04,1.1-.58,1.77l.04-.16c-.91,1.72-1.66,3.74-2.55,4.96.12.38-.91,1.7-.63,1.97-.63.93-.55.61-1.3,1.98-.18.37-.07.66-.25,1.15l-.16-.06-.13.72-.33.25-.16.46c.09-.17.24-.34.27-.29-.25.72-.87,1.63-.94,1.61l-.63,1.69c-.03-.06.07-.34.13-.58-.26.94-.2.09-.44.95.08-.09.05.09.06.13-.26.36-.66,1.27-.94,1.95l-.02-.17c-.57,1.2-1.19,2.53-1.83,3.88.27-.46.33-.3.14.1l-.18.11c-.07.28.24-.39.06.17-.26.49-.27.28-.17-.02l-.27.62s.01-.13,0-.18c-.07.28-.61,1-.69,1.41l-.04.02c-.65,1.34-.95,1.95-1.47,3.04.06.06-.17.47-.28.82-.43.78-.92,1.64-1.41,2.6-.31.69-.05.22-.17.54-.08.02-.57.98-.35.46-.58,1.15-.74,1.47-1.45,2.94.1-.15.21-.32.18-.22-.13.27-.33.59-.34.53l.03-.07c-.75,1.67-2.13,3.65-2.68,5.01l.03-.08-.64,1.37c-.34.61.15-.39-.14.04-.65,1.5-1.23,2.26-1.78,3.49-.09.1-.18.23-.28.37-.04.07-.09.14-.14.21-.02.01-.03.03-.04.03-.04,0,.02,0-.1,0-.11.01-.22.02-.34.04-.23.03-.47.06-.71.09-.96.13-1.96.28-2.67.26l.09.06c-.35.11-.44,0-.71.02.05.05.4.02.18.09-.76.11-1.53.21-2.32.29-.39.04-.78.08-1.17.11-.11.01-.21.02-.26,0,.52-1.01,1.04-2.02,1.55-3.01ZM382.4,297.79c.12-.06.24-.12.22-.09-.07.03-.17.1-.28.16.02-.02.04-.05.06-.07ZM382.39,297.73s.05-.02.05,0h0s-.04,0-.04,0ZM375.69,299.06v.14s-.06,0-.07-.02c.02-.04.05-.08.07-.12ZM375.23,299.78s.03.05.04.12h-.1s.04-.08.06-.12ZM373.83,302.54c.05.03.1.08.1.15-.04-.01-.1-.04-.14-.06.01-.03.03-.06.04-.09ZM371.96,308.89c.07-.04.15-.07.43.1-.02-.04-.09-.11-.2-.14.05-.04.12-.03.23.06-.03-.21-.23-.21-.17-.37.08.03.1.07.19.12-.13-.14-.27-.27-.15-.39.05.02.12.03.1.07.06-.25-.29-.55-.04-.76.33.2.15-.05.46.04l-.04-.17h-.17c.05-.12-.14-.3,0-.37l.09.14.02-.25-.16.09c-.11-.18-.39-.12-.25-.26.02.04.05-.12.25-.12h0c-.07-.09-.15-.19-.05-.26.1.01.32.14.39.15-.23-.15.03-.31-.2-.49.05.05.21.11.24.11l-.18-.12c.08-.03.12-.03.24.02.1-.16-.39-.08-.16-.23.01.02.04.03.06.07.15-.17.02-.44.18-.59.3.05.01.19.27.22.03-.29-.14-.69.03-.92l-.05.04c-.37-.19.26-.12.13-.32.02.04.19.13.15.1.12-.15.04-.4.04-.71l.08.07c.12-.07.15-.25.23-.35-.07-.07-.04-.13-.18-.15.61-.14.02-.77.53-.9-.01.04.03.12.04.09l.03-.29c-.13-.04-.09,0-.21,0-.06-.07-.09-.17-.06-.23.03.16.2.09.29.08-.04,0-.08-.05-.12-.06.28-.03-.24-.14,0-.25l.06.04c0-.08-.05-.19,0-.25.15.04.03.1.14.16.04-.11-.15-.33.02-.35.01.06-.02.12,0,.19.2-.03.16-.06.22-.12h0s.14-.14.14-.14l-.06.02c-.26-.29.06-.3-.05-.57.1.26.09.08.21.16.06-.03.12-.07.15-.03-.06-.13.14-.1.05-.29.04.02.04-.09.13-.02.02-.12-.07,0-.12-.04-.04-.23.31-.31.27-.63.04-.22,0-.32.04-.5,0-.01.01-.02.02-.03.05,0,.04.1.04.1.09-.08.12-.16.15-.27,0,.03.04.02.07,0,.03-.08-.05-.1.04-.18.01.03.03.08.04.13.02-.1.04-.21.08-.31.04,0,.01.08.01.13.03-.08.07-.17.09-.24-.02.1-.09.11-.11.1l.03-.07c-.14,0-.16.26-.23.39l-.04-.09c.22-.34.44-.66.67-.95h.01s-.02.04,0,.05c0,0,0,0,0,.01v.06s.03-.06.03-.06c.02.01.06.03.15.05.06,0,.11-.01.17-.03l.06.04h-.14c.08.03.13,0,.19-.01.02.02.04.04.08.05.05-.02.1-.05.16-.08.02.04-.07.07.05.09.07-.04-.08-.08.04-.11.09.04.07.08.16.04.02.03,0,.05-.04.06.08-.03.22,0,.26-.07.09.07.28-.02.29.11.02-.03.14-.1.21-.11-.12.17.29,0,.28.21.08-.16.37-.07.54-.18,0,.02-.02.05-.04.04.11.01.14.08.22.11,0-.17.15-.21.22-.33.15.17-.05.21.01.38-.02-.14.2-.15.14-.27.11.11.09.05.16.21-.01-.24.09-.04.15-.19.16.12.07.23.21.15.08.08-.04.17-.04.17.16,0,.05-.19.07-.3.18-.06.11.14.18.24.11-.05.18-.24.27-.24.01.03.03.04.02.09.1-.17.37-.02.48-.25.01.02.02.04.03.05-.04-.11-.06-.22-.06-.3.07-.01.11-.15.16-.01-.04,0-.04.06-.05.11l.07-.07c.09.2-.09.08-.07.23.12-.08.31-.26.37-.23.06.21-.21.1-.05.27l-.18-.07c.17.32-.11-.02.06.32.26.06.18-.13.25-.12.03-.12.02-.16.06-.29.26-.25-.11.44.08.13.1-.14.33-.39.29-.27l-.23.22s.37-.32.3-.17c-.13.09-.15.08-.17.1-.17.18.18-.13.24-.13l-.26.21c.08-.03.44-.2.62-.24-.12.06-.26.13-.39.21.15-.02-.2.23-.41.28.09-.01.17-.02.25-.02,0,0-.13.02-.17.02-.12.02.16-.01.25,0,0,.02-.16.03-.23.02.19.01.27.25-.01.25l-.03-.07c-.16.1.25.41,0,.44v-.05c-.29.28-.36.74-.74.83.2.2-.29.26,0,.49-.26.09-.28,0-.52.2-.05.06.12.23.09.34l-.14-.1.08.22-.2-.05v.11s.09-.03.12,0c-.02.17-.27.25-.33.21l-.06.38s-.03-.1-.04-.17c.03.25-.14-.06-.11.17.04,0,.06.06.08.08-.11.03-.2.2-.24.35l-.06-.08c-.14.22-.23.51-.38.76.08-.07.17.02.14.1l-.11-.03c.03.09.08-.05.09.09-.07.08-.14,0-.13-.08l-.04.14s-.03-.05-.05-.08c.02.08-.2.14-.15.27h-.03c-.15.24-.2.37-.32.57.06.05,0,.12,0,.21-.12.13-.27.26-.39.43-.06.14.02.07.02.15-.06-.03-.18.15-.15.03-.14.21-.18.26-.34.55.04-.01.08-.03.08,0-.03.05-.1.09-.12.06v-.02c-.14.34-.67.52-.75.82v-.02s-.13.27-.13.27c-.1.09.01-.1-.09-.05-.11.32-.36.36-.47.6-.34-.02-.5.52-.84.59l.07.04c0,.1-.09.03-.15.06.05.03.11,0,.1.05-.36.48-1.01.75-1.55,1.05-.2.11.29.46-.11.45l-.08-.19c-.09.22-.27.36-.44.5-.11.09-.13.09-.15.13-.03.03-.04.08-.06.16,0-.06-.03-.13-.02-.13-.08-.15-.08.05-.07.21-.02,0-.02-.13-.04-.21-.02-.1-.03.29-.04.09,0-.03,0-.07,0-.09-.01.11-.03,0-.06.25,0-.11-.11.18-.09.02-.15.37.01-.14-.23.39.24-.54.17-.43-.04-.14.11-.18.09-.18.25-.43-.02.01-.11.12-.33.43.22-.35.11-.21-.02-.1-.13.11-.26.17.18-.27-.27.21-.4.24-.48.19-.02,0-.04-.01-.05-.03.23-.13.25-.12.27-.12,0,.02-.01.06.3-.17l-.15.07c-.23.12-.42.12-.3-.02.07-.05.2-.05.28-.08-.16-.04.09-.15-.11-.25.04,0,.07.02.1.03,0-.02.07-.03-.11-.06l.04.03c-.28.03-.51-.19-.63-.26.24.1.28.06.34.04ZM367.93,338.93c-.02.1.25-.19.44-.35-.12.16-.27.36-.43.57-.09,0-.11-.09,0-.22ZM367.39,339.9h0c-.1.14-.18.26-.23.33.05-.07.11-.17.23-.33ZM361.75,374.47s0-.02,0-.02l.14.23c-.04-.07-.09-.14-.13-.21ZM362.02,374.91s.02.02.03.03c0,0,0,0-.01,0,0-.01-.01-.02-.02-.03ZM362.07,374.99s-.01-.02-.02-.04c0,0,.01,0,.02,0,.01.01.02.02.03.03,0,0-.02,0-.03,0ZM368.4,371.92c-.24.15-.47.3-.71.44.19-.14.38-.3.56-.45.11-.05.21-.07.14,0ZM371.5,369.77s.09-.14.3-.33l.23-.07c-.18.14-.35.27-.53.4ZM383.56,358.56c-.03-.07.02-.21.23-.5.05.02.11.04.13.1-.12.13-.24.26-.37.4ZM421.02,296.74h0s0,0,0,0l-.02.07c-.02.1-.03.19-.04.26,0,.15.02.26.04.37.03.23.04.5-.36,1.16l-.03-.47c-.65,2.33-1.85,4.57-2.65,6.81,0-.15-.05-.18.04-.39-.36.39-.77,1.68-.65,1.75-.17.33-.15.03-.31.2-.31.41-.35,1.23-.62,1.4-.04.03.01-.15.04-.24-.07.33-.68,1.36-.36,1.17-.48.76-.68,1.56-1.11,2.14,0,.52-.79,1.31-.57,1.59-.28-.21-.98,1.25-1.1,1.83,0-.22-.33.38-.35.12-.29.57-.53,1.11-.31,1.1-.95.83-.85,2.25-1.66,2.57-.78,1.75-1.54,3.35-2.36,4.87-.29-.24.94-1.65.56-1.79-.71,1.47-.89,2.46-1.82,3.79-.27.33-.02-.29,0-.44-.72,1.47-1.68,2.67-2.29,4-.03-.02.02-.18.08-.32-.14.25-.41.53-.24.6l.11-.26c.46-.25-.15,1.25-.07,1.37-.17-.69-.88,1.14-1.01.14-.07.18-.13.42,0,.45-.18.21-.29.25-.25-.06-.48.91-.12.71-.63,1.48-.07-.05,0-.23-.03-.36-.12.48-.23.97-.72,1.59-.02-.07-.12-.03,0-.22-.71,1.14-.91,2.16-1.87,3.29-.07-.57-.38.35-.69.23l-.37.71.31-.17c-.4.57-.56,1.21-.99,1.64l.19-.5-.7,1.11.52-.54c-.27.67.38.17-.23.88.08-.17-.4.57-.77.75-.12.34-.24.69-.61,1.06-.16.05-.22-.29-.33-.26.01.43-.89,1.37-.92,1.88.03-.15-.09-.26-.15-.24v.35c-.25.22-.3.24-.38.12-.61.76.5-.01-.32.81.04-.08-.01-.07.08-.24-.76.87-1.22,1.88-1.96,2.65-.43.06.51-.78.09-.65-.89,1.25-1.64,2.75-2.63,3.85l.2-.2c.19.42-.85.74-1.17,1.44.09-.16-.02-.33-.02-.26-.68.76-1.24,1.67-2.13,2.93l.05-.21c-.44.41-1.06,1.17-1.51,1.63-.05.21-.31.48-.06.4-1.68,1.17-2.33,3.03-3.83,4.05.14-.15.29-.42.18-.3l-.98,1.15c.18.01.2-.08.49-.24-.07.2-.32.55-.58.82.4-.55-.16-.15-.42,0,.06,0,.03.1.08.11-.72.4.11.3-.77.94v-.09c-.27.31-.47.63-.79.93-.23.02.26-.35.19-.46-.42.44-.66,1.05-1.15,1.33.16-.21.42-.47.58-.69-.55.3-.56.39-.9.68l.03-.03-.8.66.22-.15c-.32.78-1.07,1.12-1.7,1.97.61-.81.04-.2,0-.36-.22.14-.55.38-.49.27-.29.41-.66.47-1.06,1.05-.05-.01-.39.34-.38.19-.45.44.16-.04.15.03-.66.73-1.84,1.36-2.84,2.34-.9.74-1.02,1.01-1.86,1.61-.04.02-.07.05-.1.07-.29.13.22-.27.22-.27-.53.3-.91.56-1.37.91.08-.08-.03-.03-.19.04-.38.27-.21.24-.76.52.08-.07.17-.18.35-.31-.45.29-.91.59-1.37.9-.15.04.27-.22.43-.34-.52.36-1.41.82-1.57.94l.37-.16c-.21.1-.12.01.02-.07.47-.26.69-.36.73-.35l-.34.21c.41-.1,1.4-.81,2.08-1.22-.06.08-.13.15-.2.23-1.94,1.17-3.79,2.04-5.52,2.58,0,0,0-.02-.01-.04.05-.02.11-.04.2-.07l.2-.11-.41.17c-.04-.1-.14-.32-.36-.77-.14-.26-.31-.5-.44-.77l-.07-.28s.03.06.04.1c-.05-.11-.09-.21-.14-.32,0-.07-.04-.2-.09-.36l-.38-.78c0-.11.17.35.04-.22-.15-.38.03.4-.18-.24-.07-.42,0-.31-.17-.78,0-.08.05.02.12.21-.07-.21-.15-.49-.23-.74-.06-.26-.11-.49-.16-.6,0-.45-.31-1.46-.16-1.44-.04-.13-.19-.76-.25-1.16.25.71-.16-1.51.09-1.34-.2-.53-.18-1.97-.26-2.94.02.05.05.16.04.25.02-.55.08-.71.12-1.05-.17-.07-.16-.92-.26-1.39.21-.66.19.42.37.21-.15.03-.08-1.17-.22-.95.15-.5.1-.44.28-.69-.23-.11.01-.48-.09-.91.21-.72.24-.17.28-.98.14-.37.11.35.12.35.13-.81-.13-.41-.21-.59.1-.98.21-.43.37-.75.04-.61-.06-1.11.05-1.56.04-.03.07-.11.09,0-.04-.67.4-1.88.41-2.66.03-.05.06-.07.08-.08-.14.09-.25.08-.32.04.09-.36.04-.71.22-.8-.06.22-.01.25,0,.37l.04-.39c.29-.28-.07.53.08.58.11-.75.27-1.63.49-2.17.24-.04-.36,1.31.06.63l-.36.82c.53-.55-.2.51.34.01.46-1.07.28-1.29.8-2.32,0-.29-.2.01-.21-.27.43-1.64,1.06-.93,1.33-2.14,0-.35-.15-.59.45-1.23l.05.38c.63-.89.03-.74.9-1.61-.05.23-.48.78-.35.66.64-.5.22-.53.58-1.02l.26.04c.72-1.01,1.4-2.2,2.18-3.33.01.1-.07.34.18.12.94-1.46,2.22-2.94,3.33-4.2l.2-.64c.09-.12.24-.16.18-.01.45-.48-.09-.11.03-.41.21-.31.39-.32.3-.09.53-1.03,1.6-2.87,2.49-3.72l-.09.23c.62-.72.27-1.12.93-1.71l-.07.16c1.25-1.61,2.4-3.57,3.52-4.68-.05-.4,1.23-1.6,1.01-1.92.8-.86.67-.55,1.67-1.85.25-.36.19-.66.46-1.13l.15.09.26-.71.38-.21.25-.45c-.12.16-.3.32-.32.26.38-.7,1.16-1.55,1.23-1.52l.92-1.64c.02.07-.13.34-.24.57.43-.92.22-.07.61-.91-.09.09-.03-.1-.04-.14.32-.34.88-1.21,1.28-1.88v.17c.76-1.16,1.54-2.5,2.39-3.81-.33.45-.37.27-.13-.12l.19-.09c.1-.29-.29.38-.03-.18.33-.48.31-.26.16.04l.35-.62s-.03.13-.02.19c.1-.28.75-.98.88-1.39l.05-.02c.84-1.32,1.19-1.94,1.89-3-.05-.06.24-.47.4-.81.54-.76,1.16-1.59,1.78-2.53.41-.68.08-.23.25-.54.08-.01.71-.95.42-.44.75-1.12.96-1.44,1.87-2.88-.13.14-.25.3-.21.2.17-.26.42-.57.42-.51l-.04.07c.13-.21.27-.41.4-.63.13-.18.33-.5.38-.53.49.02,1,.04,1.49.06,1.06.05,2.07.1,2.83.03h-.09s1.58-.06,1.58-.06c.73.02-.44.05.1.1,1.71-.11,2.7.05,4.11-.02,1.09.28,3.87.04,5.34.25l-.08-.07c.38-.06.46.05.74.07-.04-.06-.41-.08-.18-.11,1.61-.02,3.27.04,4.94.13l2.51.15h.16c.06.01.1.02.09.02h.03s.02.02.02.04c0,.02-.08.06-.06.05ZM485.82,380.32c.54-.45,1.05-.93,1.56-1.44-.58.58-1.09,1.04-1.56,1.44ZM540.1,375.3c-.45-.38-1.6-1.13-3.71-3.33-.53-.56-1.01-1.14-1.49-1.74,1.57,1.87,3.3,3.6,5.2,5.08,0,0,0,0,0,0Z"/>
      <path fill="#8d2020" class="cls-1" d="M592.53,377.2c-.12,0-.24-.01-.36-.02.52.03,1.04.05,1.58.09-.47-.03-.86-.05-1.22-.07Z"/>
      <path fill="#8d2020" class="cls-1" d="M585.44,377.09c-.15,0-.29.01-.43.02.14,0,.29,0,.43-.01-.14,0-.17,0,0,0Z"/>
      <path fill="#8d2020" class="cls-1" d="M243.82,277.53h.01c-.23,0-.47,0-.7-.01.23,0,.46.02.69.01Z"/>
      <path fill="#8d2020" class="cls-1" d="M219.78,291.48c.64-1.01-1.4,2.34-2.22,3.71,2.65-4.33,6.85-11.21,7.68-12.56l-1.31,2.09c.35-.55-.04.11-.61,1.03-2.27,3.71-3.29,5.34-3.43,5.54l1.68-2.75c-1.79,2.78-6.74,11.03-10.08,16.57l1.11-1.91c5.95-9.82,12.28-20.19,17.5-28.32,0,0,1.13.37,2.85.82-.26-.07-.5-.12-.76-.19-.51-.15-1.02-.29-1.54-.44l-.39-.12c-.06,0-.13-.06-.17-.03l-.1.16-.44.69c-.51.78-.03.02.08-.17-1.59,2.51-3.39,5.43-2.34,3.81.78-1.25,1.26-2.03,1.76-2.82.25-.4.51-.8.8-1.28.07-.12.15-.23.23-.36.06-.08.24.05.39.07.32.09.66.19,1.04.3,2.43.7,4.28,1.09,3.86,1.01.87.21,3.85.81,5.21.93-1.63-.21-3.47-.55-5.42-1-.17-.04-.34-.09-.51-.13,3.33.8,7.84,1.62,11.3,1.28.17-.02.34-.04.51-.06-.25.04-.53.08-.66.1-.41.02-1.05.05-1.96.06.63.01,1.26,0,1.89-.04,0,0,0,0,.07,0,.02,0,.07,0,.1,0,.02,0,.03,0,.05,0,.01,0,.02,0,.04,0,.28-.03.79-.09,1.66-.19,1.12-.14,2.85-.28,5.37-.77,2.36-.38,4.67-.99,6.99-1.57l2.22-.64c-.86.25-1.72.52-2.59.75,1.65-.44,3.02-.89,4.48-1.34.55-.19,1.5-.53,2.83-1,1.11-.37,2.17-.89,3.25-1.34l1.61-.7,1.57-.79c.77-.36-2.81,1.43,1.42-.66,1.47-.74.76-.4.29-.17-.24.11-.41.19-.22.1.19-.1.75-.36,1.93-1.05,3-1.67,2.14-1.15,5.52-3.33.38-.23.01.01-.81.54.56-.36,1.16-.74,1.76-1.17.88-.63,1.8-1.29,2.67-1.92,1.69-1.33,3.21-2.53,3.9-3.15.67-.59,1.58-1.38,2.55-2.23.96-.87,1.94-1.86,2.86-2.73,1.79-1.79,3.17-3.3,3.07-3.14.4-.4,1.42-1.61,2.63-2.99,1.22-1.39,2.51-3.07,3.56-4.34-1.87,2.35.1-.01,2.28-2.92,1.1-1.44,2.22-3.04,3.05-4.17.8-1.15,1.29-1.84,1.08-1.5,1.23-1.85,3.48-5.18,5.76-9,1.96-3.27,4.01-6.87,5.65-10.05-.04.08-.08.17-.12.25,2.06-3.93,2.62-5.09,3.88-7.64.08-.28.85-1.98,1.76-4.05.88-2.08,1.93-4.53,2.58-6.27,2.14-5-1.15,3.1-.42,1.55-.09.11.81-2.07,1.58-4.1.76-2.03,1.45-3.87,1.09-3.02,1.49-3.88,1.26-3.35,2.05-5.35.1-.74,1.25-3.67,2.18-6.99,1.81-5.74.62-1.43,2.37-7.81.43-1.51.28-.85.02.2-.28,1.04-.65,2.46-.65,2.46,1.8-6.49.72-3.08,1.04-4.47,1.93-7.8.99-3.59,1.7-6.23,1.11-4.9,1.72-8.7,2.37-12.38.07-.27.2-.99.08-.14.4-2.63,1.04-6.5,1.5-10.54.38-4.03.27-8.38-1.16-11.29-.17-.44-.24-.67-.31-.78.37.97.32,1.15.2.98-.26-.72-.69-1.34-1.05-1.93-.21-.28-.45-.52-.66-.77-.21-.25-.42-.48-.67-.65-.89-.8-1.77-1.16-2.26-1.48,1.7.83,1.78,1,2.5,1.53-.82-.71-1.76-1.29-2.77-1.65-.67-.27-.75-.32-.48-.25.26.09.91.23,1.54.63.69.31,1.32.86,1.83,1.27.46.46.75.82.78.8-.28-.29-.51-.64-.83-.89-.32-.26-.64-.52-.97-.77-.72-.4-1.45-.84-2.26-1.05-.78-.32-1.62-.36-2.43-.52-.82-.04-1.64-.08-2.44-.05-.79.09-1.59.1-2.34.24-.75.15-1.49.29-2.19.42-.35.07-.7.13-1.04.2-.34.07-.66.19-.98.29-.64.19-1.24.38-1.81.55-.25.03.29-.16,1.14-.44.43-.14.94-.3,1.46-.47.54-.11,1.1-.21,1.62-.32,2.08-.4,3.51-.67.36-.16l1.82-.32,1.86-.12c1.24-.02,2.5.03,3.73.31-1.41-.35-1.85-.34-1.77-.35.04,0,.21,0,.44,0,.23.03.53.09.83.14.6.1,1.21.21,1.34.27.07.01.02-.02-.2-.11-.23-.08-.64-.17-1.3-.32-.62-.15-1.21-.13-1.77-.16-.56-.04-1.09-.05-1.59.01-.5.04-.97.07-1.42.1-.45.04-.86.15-1.27.21-.81.15-1.55.29-2.25.42-.71.11-1.35.39-2.01.57-.65.21-1.31.41-1.99.62-.66.28-1.35.58-2.1.9-.75.32-1.57.66-2.42,1.16-.85.49-1.85.94-2.85,1.62-1.76,1.3.68-.28-1.08,1.02-1.45.93-2.54,1.9-3.54,2.66-1.01.75-1.75,1.49-2.45,2.07-1.4,1.16-2.27,2.03-3.12,2.77-.85.74-1.57,1.45-2.51,2.44-.96.97-2.06,2.27-3.64,4.23-1.53,2.11-2.02,3.01-6.42,8.63l1.28-2.09c-5.63,7.42-2.87,4.49-8.89,12.14.98-1.42,4.34-5.86,3.47-4.76-3.94,4.92-2.58,3.63-5.52,7.5l-.79.67c-5.96,7.93-12.09,16.97-18.13,26.13.28-.54,1.26-2.15-.23-.05-7.59,11.58-16.1,24.76-23.49,35.86l-2.6,4.38c-.65.99-1.28,1.79-.62.69-2.93,4.29-.03.3-1.34,2.43-1.62,2.48-2.25,3.19-1.28,1.59-1.25,1.93-2.69,4.35-4.24,6.94-1.57,2.58-3.29,5.35-5.4,7.8-.26.31-.53.61-.81.89l-.32.33-.2.19c-.14.24-.25-.02-.36-.14l-.22-.26c-.13-.16-.26-.31-.38-.47-.98-1.27-1.9-2.56-2.71-3.86-1.65-2.58-2.95-5.12-3.96-7.29.29.55.6,1.09.9,1.64-1.67-3.35-2.61-5.24-3.52-7.07-.91-1.84-1.76-3.64-3.03-6.89l.56,1.22c-3.16-7.53-6.53-15.43-9.2-23.07-1.33-3.82-2.54-7.55-3.42-11.14-.46-1.79-.93-3.51-1.31-5.18-.35-1.68-.68-3.28-.99-4.8-.45-1.11-1.13-5.09-1.82-8.89-.57-3.82-1.12-7.48-1.35-7.98-.43-4.64-.62-6.29-.73-8.42-.11-2.13-.39-4.73-.7-11.28-.21-3.49-.45-5.2-.67-9.53l.17-.11-.31-5.88.16-3.13-.07-4.06c0,1.62-.05,3.44-.1,3.2-.07-3.17-.04-7.04.03-10.14.03-1.55.07-2.9.11-3.88.04-.98.07-1.58.09-1.62l.11-15.03c.05.33.02,2.85.03,4.84,0-8.03.18-1.45.17-8.81-.05.99-.07-.53-.1-.7.07-1.83.15-4.83.19-8.15.02-1.66.03-3.4.05-5.1-.03-1.68.23-3.34.1-4.97.07.41.09.82.12,1.23,0-.72,0-1.46-.16-2.22-.16-.76-.48-1.54-1.03-2.17-.27-.33-.61-.56-.95-.8-.36-.17-.72-.39-1.11-.48-.38-.13-.76-.21-1.14-.27-.39-.08-.76-.09-1.14-.12-1.51-.11-3.14.1-4.59.87-.71.41-1.34.95-1.86,1.58-.5.65-.88,1.37-1.16,2.12-.26.75-.47,1.52-.57,2.31-.14.78-.14,1.58-.24,2.29-.09.74-.25,1.49-.34,2.28-.1.81-.09,1.57-.13,2.35-.11,3.09-.23,6.21-.34,9.34.19-4.49.28-3.45.16.22l-.16,1.46c-.01,2.37.17-3.83.09,1.04-.16,4.67-.22,3.14-.17.45l-.14,5.68c-.04.33-.02-1-.04-1.35,0,2.33-.41,9.8-.45,13.17l-.04.32c-.26,6.25-.51,10.78-.82,15.02-.32,4.24-.61,8.21-.76,13.31.07.2-.06,4.19,0,7.23-.04,7.5.21,15.82,1,24.82.63,6.32.23,1.84.55,4.68,0,.12.06.77.15,1.6.02.21.05.43.07.66.04.04-.13.31-.21.51-.2.42-.4.85-.58,1.24-.73,1.56-1.19,2.55-.24.41-4.53,9.83-5.85,12.53-11.86,24.84.68-1.32,1.43-2.81,1.07-2.03-1.09,2.23-2.53,5.06-2.4,4.72l.29-.59c-6.75,13.81-16.12,31.62-21.29,42.73l.29-.62-5.44,11.48c-2.56,5.25,1.48-3.18-.45.69-5.86,12.38-9.46,19.46-14.3,29.65-2.02,3.87-5.4,10.84-8.94,18.16-1.77,3.66-3.58,7.4-5.27,10.89-.43.87-.84,1.73-1.25,2.56-.21.38-.42.92-.52,1.42-.09.51-.1,1.04,0,1.53.4,2.04,2.26,3.32,3.96,3.42-.26-.05-.52-.1-.77-.19.85.19,1.57.09,2.14-.08.58-.16.98-.36,1.39-.6.39-.23.77-.53,1.07-.94.26-.35.54-.73.85-1.21-.11.13-.59.81-.94,1.27-.21.26-.4.42-.42.43-.03,0,.15-.12.46-.56,1.92-2.69,3.25-5.71,4.64-8.66,1.34-2.96,3-5.79,4.57-8.71,3.18-5.8,6.4-11.65,9.62-17.52,6.48-11.73,12.99-23.53,19.38-35.1,4.66-8.48,2.15-5.08,8.21-15.67l-1.48,3.14c1.14-2.16,2.29-4.33,3.45-6.51,1.13-2.21,2.2-4.45,3.26-6.69,2.11-4.5,4.21-8.96,6.64-13.3,2.35-4.37,4.69-8.73,7.01-13.05,1.15-2.16,2.3-4.32,3.44-6.46l.85-1.6.23-.46.12-.23.08.22.19.53c-.1-.23-.13-.23-.18-.3-.02-.03-.04-.06-.06-.1,0-.02-.02-.05-.03-.08l-.02-.05-.03.06s.02-.04.03,0l.02.1c.01.06.02.12.04.19.01.06.03.11.04.17.1.33.21.68.32,1.03.48,1.51,1.01,3.17,1.51,4.71.53,1.53,1.05,2.93,1.44,3.96.39,1.02.65,1.67.69,1.67.97,2.82.11.69.65,2.45,1.24,3.87,3.72,9.49,4.35,11.56.07.22-.13-.24-.35-.78.59,1.43,1.47,3.59,2.21,5.38.98,2.24,1.71,3.87,1.3,2.67,2.79,6.65,6.05,12.41,9,17.36,1.08,1.55,2.77,4.13,4.41,6.38.84,1.1,1.63,2.16,2.29,2.95.69.78,1.22,1.33,1.48,1.5-.15-.04.28.55,1.06,1.52.42.46.93,1.01,1.49,1.62.25.26.5.53.77.82l.1.11s-.05.09-.07.13c-1.89,3.17-4.09,6.87-5.22,8.78.72-1.34-2.19,3.27-1.37,1.69-2.76,4.37-5.26,8.41-4.62,7.74-2.74,3.91-5.23,8.02-7.36,11.74-2.11,3.73-3.93,7-5.52,9.18-7.59,13.38-14.62,25.75-21.45,37.78-.08-.62,7.64-13.24,7.01-12.93-6.46,11.43-9.98,18.13-16.59,29.35-1.74,2.89.82-1.74,1.33-2.75-1.62,2.85-3.22,5.65-4.8,8.4-1.51,2.79-3,5.54-4.46,8.25-2.93,5.41-5.77,10.67-8.46,15.85,1.21-1.74-3.61,7.7-4.11,8.91,1.18-3.2-5.61,10.12-3.26,4.43-.69,1.35-1.52,3.06-1.25,2.81-1.1,1.96-1.5,2.55-.54.48-3.83,7.29-2.27,4.81-5.83,11.37-.06-.06.62-1.4.9-2.13-1.63,3.41-3.35,6.8-6.32,12.36.11-.31-.17.11.33-.87-4.85,9.32-8.01,16.21-13.57,26.46,1.3-3.28-1.99,3.52-2.57,3.93l-2.88,5.7,1.33-2.2c-2.6,4.95-4.69,9.44-7.02,13.65l1.81-3.74-4.82,9.31,2.87-5.2c-2.48,5.09.64-.35-2.9,6.2.67-1.35-2.6,4.95-4.13,7.45v-.02c-1.19,2.5-2.43,5.06-4.35,8.73-.57.92.08-.93-.3-.34-1.01,2.55-5.76,11.78-7,15.02.44-1.07.32-1.19.13-.87l-.81,2.16c-1.19,2.31-1.38,2.63-1.31,2.2-3.4,7.02,1.42-2.06-2.72,6.21.3-.66.12-.36.74-1.74-2.04,4.17-3.94,8.24-5.81,12.22-.94,1.99-1.87,3.95-2.79,5.9-.46.99-.85,2.01-1.2,3.04-.33,1.02-.7,2.05-.84,3.18-.12.66-.15.51-.14-.08.04-.57.26-1.54.53-2.41.53-1.77,1.25-3.44.57-2.12-.28.74-.53,1.49-.75,2.24-.22.74-.44,1.56-.52,2.41-.08.85-.02,1.79.46,2.66.22.44.6.8,1,1.09.42.25.88.44,1.33.5.91.16,1.78.05,2.6-.14.82-.19,1.6-.48,2.35-.84,1.48-.72,2.9-1.65,3.92-3.06.51-.76.79-1.39,1.22-2.07.4-.66.83-1.32,1.27-1.96.89-1.29,1.78-2.58,2.66-3.86,1.72-2.59,3.29-5.38,3.77-8.43-.1.76-.35,1.48-.56,2.21.04-.86.78-3.03.57-5.87-.02-.7-.2-1.45-.29-2.17-.09-.6.18-1.31.49-1.98.68-1.34,1.48-2.75,2.12-4.1-.66,1.32-.71,1.81-.56,1.44,3.87-7.18,7.71-14.79,13.39-25.77l-.63,1.4c1.14-2.12,2.64-4.9,4.17-7.73,1.56-2.81,3.15-5.66,4.42-7.92.67-1.39,2.12-3.98,1.14-2.46,8.16-13.79,14.6-26.83,21.8-39.09-.82,1.49-1.91,3.57-1.25,2.39l5.8-10.62c-.56.78-.83,1.36-2.13,3.54.68-1.37,2.3-4.38,3.76-7.01-2.58,4.79.17.04,1.36-1.98-.22.33.14-.39.02-.24,3.33-5.38.35-1.02,4.8-8.42l-.19.42c1.6-2.8,3.05-5.41,4.82-8.41.82-1.2-1.69,3-1.72,3.23,2.45-4.23,4.69-8.44,7.01-12.22-1.03,1.8-2.52,4.4-3.55,6.2,2.53-4.11,2.78-4.61,4.6-7.7l-.18.3,4.21-7.14-1.08,1.81c2.88-5.41,6.23-10.8,10.27-17.99-3.93,6.99-.61,1.18-.84,1.75,1.08-1.81,2.71-4.56,2.27-3.76,1.92-3.4,3.28-5.62,6.02-10.39.15-.2,2.14-3.58,1.74-2.8,2.58-4.36-.65,1.01-.45.63,4.01-6.71,9.4-15.77,15.17-25.43,4.62-7.78,5.68-9.67,9.57-16.16.4-.65.8-1.32,1.21-1.99.72-1.16-1.58,2.69-1.58,2.69,2.53-4.19,4.44-7.34,6.83-11.29-.47.81.03-.01.77-1.21,1.91-3.17,1.25-2.14,3.79-6.31-.43.72-.98,1.65-1.88,3.19,2.26-3.74,4.49-7.43,6.82-11.29ZM251.59,269.38c.06-.06.28-.13.82-.21.03.03.07.08.04.13-.29.03-.58.06-.86.08ZM289.8,242.21v.03s-.03-.07-.03-.1c.06-.13.12-.14.16-.13-.04.06-.08.12-.13.21ZM329.63,135.68s0-.05-.01-.08c0,0,0,0,0,0,0,.03.01.07,0,.09ZM329.62,135.55s0,0,0,.01c0,0,0,0,0,0,0,0,0,0,0,0,0,0,0-.02,0-.03,0,0,0,0,.01,0ZM324.26,138.75s.03.06.03.09c-.02-.02-.03-.04-.05-.06,0,0,0,0,0,0,0,0,.02-.02.03-.02ZM323.5,139.64s.02.02.03.02c-.01,0-.02.01-.03.02-.02-.04-.02-.05,0-.05ZM322.65,140.66s.01.01.02.02c0,0-.01,0-.02,0,0-.01,0-.01,0-.02ZM311.6,154.65s.01,0,.02,0c-.01.02-.02.04-.03.06,0-.01,0-.02.01-.05ZM298.03,173.62c.05-.03.12-.08.17-.11-.07.08-.14.18-.22.28-.02,0-.03-.02-.05-.04.03-.05.06-.09.1-.14ZM297.7,174.17h0c-.05.07-.09.13-.11.17.02-.04.06-.08.11-.17ZM285.72,190.78c-.04.14.34-.34.61-.62-.18.26-.41.58-.65.92-.11.04-.11-.09.04-.3ZM284.84,192.28h0c-.15.22-.28.41-.36.53.07-.11.18-.26.35-.53ZM267.7,190.64c-.37.56-.89,1.34-1.79,2.7h0c.75-1.13,1.39-2.09,1.79-2.7ZM261.8,199.59c.31-.35.1.11-.64,1.22.35-.63-1.38,1.95-2.5,3.57.88-1.34,1.98-3.02,3.13-4.79ZM249.13,244.39l-.02.03s0,0,0,0c0-.01.02-.02.02-.04ZM247.9,246.39c-.44.74-.66,1.04-.7,1.08l.15-.24c.23-.36.45-.72.68-1.08.02-.01-.04.09-.13.24ZM245.66,249.92c.2-.33.41-.65.61-.98-.26.44-.52.88-.75,1.25l.13-.27ZM245.45,250.27l-.33.58c-.07.1-.12.18-.15.2.16-.26.32-.52.47-.78ZM241.91,256.12c-.03.08-.12.25-.31.6l-.2.26c.17-.29.34-.57.51-.86ZM237.37,263.71c-.71,1.42-.07.26-.07.41.23-.34.58-.87.51-.71.34-.7.69-1.08,1.17-2.06.04-.03.42-.71.38-.53.49-.87-.15.18-.13.1.73-1.36,1.9-3.08,2.95-5.03.86-1.5,1.06-1.92,1.75-3.12.11-.18.21-.35.32-.52.06-.07-.3.58-.3.58.51-.82.88-1.44,1.34-2.23-.09.16.02,0,.17-.23.38-.63.22-.44.73-1.25-.08.15-.19.36-.34.65.44-.74.87-1.47,1.33-2.24.14-.19-.26.47-.42.74.51-.86,1.35-2.21,1.5-2.49l-.11.17c.23-.36.45-.73.68-1.09-.18.31-.29.52-.14.31.3-.51.34-.58.66-1.13.07-.11.15-.23.22-.34.16-.25.27-.4.24-.34.09-.15.43-.65.56-.88-.09.12-.18.25-.27.39.28-.43.55-.86.83-1.29.02-.04.05-.07.07-.11-.03.06-.07.15-.06.16-.05.07-.11.16-.21.32l-.17.31.42-.65s0,0,0,0c.08-.09.29-.38.81-1.14l.76-1.19.27-.37-.66.99c.39-.55.61-.92.87-1.32.07-.09.19-.25.35-.48l.74-1.17c.11-.13-.32.53.21-.23.34-.55-.38.5.21-.4.39-.55.29-.38.72-1.05.07-.09-.02.06-.19.32.38-.59,1.04-1.55,1.22-1.87.42-.57,1.32-1.98,1.33-1.89.13-.2.68-1.06,1.02-1.59-.61,1.02,1.36-2,1.26-1.7.44-.76,1.77-2.62,2.6-3.93-.04.08-.13.22-.21.33.5-.72.67-.91,1-1.36,0-.14.75-1.27,1.12-1.9.68-.83-.28.6-.02.37-.09,0,1-1.57.74-1.31.52-.64.43-.56.74-.86-.03-.19.42-.64.73-1.24.73-.93.29-.17,1-1.27.4-.48-.23.5-.23.5.77-1.08.27-.57.37-.84.88-1.32.49-.55.86-.95.55-.82.88-1.51,1.3-2.11.05-.03.14-.15.07,0,.51-.92,1.78-2.54,2.35-3.62.06-.07.1-.1.12-.11-.18.12-.27.09-.29.03.34-.49.54-.97.76-1.09-.21.3-.19.35-.26.51l.31-.54c.45-.37-.44.73-.34.79.66-1.02,1.34-2.26,1.91-3,.25-.06-1.2,1.82-.36.88l-.88,1.14c.84-.76-.52.7.29.03,1.14-1.52,1.16-1.77,2.29-3.29.16-.4-.2.03-.04-.37,1.38-2.31,1.61-1.46,2.54-3.21.19-.49.08-.8,1-1.88l-.08.52c1.08-1.48.32-1.05,1.56-2.53-.12.33-.76,1.22-.58,1.01.88-.91.39-.8.94-1.58l.3-.04c1.1-1.61,2.19-3.47,3.4-5.26-.01.14-.16.48.19.11,1.47-2.29,3.36-4.75,5-6.81l.4-.95c.14-.19.33-.3.22-.07.65-.79-.08-.12.13-.57.32-.49.54-.56.38-.22.63-1.14,1.71-2.92,2.74-4.37.02,0,.02,0,.04,0,.43-.44.36-.57.79-1.01,0-.03,0-.05-.02-.06.12-.15.24-.29.35-.42l-.16.34c.19-.24.31-.44.42-.63.11-.04.2-.12.26-.34,0-.05-.01-.1-.02-.15.07-.17.14-.34.21-.51.01,0,.01-.02.02-.02l.09.26c.39-.44-.07-.46.44-.85.01.14-.22.41-.14.36.4-.2.06-.3.25-.54l.22.08c.36-.51.65-1.15,1.03-1.73.03.07.02.21.18.12.44-.76,1.15-1.46,1.78-2.05l.02-.39c.05-.06.16-.05.15.04.26-.21-.1-.09-.07-.27.1-.16.25-.12.23,0,.09-.27.25-.64.44-.98v.03s.02-.08.02-.08c.21-.37.46-.71.74-.89l-.02.13c.35-.33-.03-.69.38-.93l-.02.09c.25-.29.48-.62.71-.94,0,0,.02.01.02.03.01-.04,0-.05.01-.08.36-.52.72-1.01,1.13-1.3-.06-.13.08-.31.22-.49,0,.03,0,.07,0,.09.02-.1.07-.17.11-.24.02-.03.04-.06.05-.08.19-.23.49-.33.62-.47l-.07.24c.04-.14.11-.24.18-.33h-.25c.11-.1.18-.2.25-.15,0-.04-.03-.06-.05-.08.08-.08.19-.18.34-.35.03-.04.05-.09.06-.14.02-.02.03-.03.04-.05.04,0,.03.05.02.09.29-.17.23-.28.17-.42v-.02s-.02-.02-.02-.02c0,0,0,0,0,0l.05-.34s.02-.04.03-.06c.08.15.32.06.34-.03-.07.1-.14.07-.19,0l.1-.02.11-.24c-.06.08-.18.14-.21.1.17-.37.64-.74.71-.71l.43-.86c.03.05-.04.19-.08.32.16-.51.17.01.32-.45,0,0,0,0,0,0,.13-.34.43-.21.56-.65-.09,0-.13,0-.16-.01.08-.12.15-.25.22-.36l.03.11c.4-.58.79-1.26,1.23-1.92-.19.22-.25.09-.13-.11.04,0,.09,0,.14-.01h0s.09-.03.14-.04c-.06-.03.05-.17.12-.33.01.02,0,.07.02.11.03-.16.43-.46.46-.7h.04c.43-.66.63-.96.98-1.5-.05-.05.08-.22.15-.4l.07-.11c.27-.35.59-.72.89-1.16.05.07.15.1.2-.05l-.14-.05c.07-.13.04-.12.03-.14.03-.05.06-.08.08-.11.03-.03.07-.07.11-.11.03-.02.06-.02.09-.04,0,0,0,0,0,0,0,0,0,0,0-.01.06-.04.16-.16.41-.6.14-.21.29-.44.54-.84-.02.02-.04.03-.05.05.05-.06.1-.13.15-.2,0,0,0,0,0,0l-.02.04s.05-.08.07-.11c.29,0,.29-.66.68-.8l-.03.09c.17-.09.24-.31.33-.55.31-.37.6-.72.75-1.04l-.02.04.06-.11c.13-.18.26-.36.39-.54,0,.02.01.03.07-.03.07-.14.14-.25.22-.36.05-.05.09-.11.12-.17.07-.09.13-.19.2-.28l.03.03c.05-.08.08-.15.11-.21.15-.2.3-.39.44-.62.03-.04.06-.08.08-.12.54-.31,1.12-1.59,1.72-2.08h-.09c.05-.2.17-.17.27-.27-.06-.02-.18.13-.14.01.15-.23.31-.46.48-.69h0c.21-.18.55-.27.83-.38.13-.06-.37-.39-.05-.33l.12.16c0-.33.4-.32.41-.64.03.04.08.09.06.11.16.07.15-.12.04-.22.04-.02.1.08.17.11.11.03-.07-.24.08-.14.02.02.03.05.03.06-.04-.08.13-.09-.04-.2.14,0,.06-.18.2-.15-.14-.19.2-.03-.04-.27.25.24.32.08.25-.07.06.09.12.04.21.16.05-.05.04-.13-.1-.25.4.21-.07-.41.38-.07,0-.27.05-.48.12-.67.26.27-.12.16.16.43.02-.22-.14-.51.05-.56.07,0,.1.14.13.19.01-.23.27-.19.23-.44.02.03.04.07.05.1.01-.03.09,0-.03-.13v.05c-.17-.13-.25-.37-.33-.5,0,0,0,0,0-.01.25.29.17-.04.54.46,0-.04-.05-.12-.14-.2.05,0,.1.05.17.17.01-.14-.15-.25-.07-.32.06.06.07.1.13.18-.08-.16-.16-.31-.05-.31.03.04.09.08.07.1.05-.06,0-.21,0-.32,0,0,.01,0,.02-.02l.07.11s-.02-.1-.08-.2c.01-.03.04-.05.09-.05.22.31.12.05.35.29v-.13s-.14-.09-.14-.09c.04-.03,0-.13,0-.19.02,0,.04-.02.05-.03l.05.13.06-.14-.07-.02s0-.05,0-.08c.02,0,.03,0,.04-.02.02.03.05.06.04.08.04-.03.2-.03.17-.13.01.01.03.03.03.04-.06-.09-.06-.13-.05-.17.01-.02.02-.04.01-.07,0-.02,0-.04,0-.06,0-.02,0-.04,0-.06.05.06.11.14.13.15l-.12-.18s.01,0,.02.01l.09.1s-.03-.06-.04-.08c.03.02.06.05.12.11.1-.04-.29-.27-.08-.23,0,.02.03.04.04.08.15-.02.08-.26.23-.26.22.2-.02.12.18.29.05-.12.03-.33.07-.46.06.04.12.09.19.23-.04-.13-.12-.36-.08-.42.03.01.05.01.07,0,0,0,0,0,0,0v.02s.02-.02.02-.04c.03.06.1.14.08.11.04,0,.06-.04.07-.08.04,0,.06-.05.08-.07-.03-.03-.04-.05-.05-.07,0-.06.01-.13.03-.2,0,0,0,0,.01,0l.04.07s.03,0,.05-.01c0,0,.01,0,.02.01,0,0,0-.01,0-.02.06-.02.1-.07.16-.08-.04-.07-.03-.1-.09-.16,0,0,0-.01,0-.02.37.17.2-.27.36-.32.01,0,.02,0,.03,0,.03,0,.06,0,.11.03-.02.02.01.09.02.08l.06-.17c-.08-.08-.09-.07-.13-.09,0-.04,0-.08,0-.12.05.06.12.1.17.13-.03-.03-.05-.07-.08-.1.15.09.02-.05-.02-.13.02-.01.03-.02.05-.04l.04.05s0-.05,0-.08c.02-.02.04-.03.06-.05.04.05-.01.06.05.14.02-.03,0-.11-.01-.17.02-.02.04-.03.06-.05,0,.04-.02.07-.02.12.16.09.13.05.18.03h0s.12-.02.12-.02h-.05c-.15-.31.02-.22.01-.37,0,0,0,0,.01,0,.04.15.06.07.14.18.04.01.1.01.12.05-.04-.12.11,0,.06-.18.03.03.04-.04.1.05.02-.08-.06-.04-.09-.09-.02-.18.27-.06.25-.31.02-.06.02-.11.02-.16.08-.06.17-.12.25-.19,0,0,0,0,.01,0,0,0,0-.01,0-.02.02-.01.03-.02.05-.04,0,.02.01.03.01.05,0-.03.02-.05.03-.08.02,0,.03-.02.05-.03,0,0,0,.01,0,.02,0,0,0-.02.01-.03.11-.07.23-.13.34-.2l.4.57h0s0,0,0,0c0,0,0,0,0-.01,0-.01,0-.03-.01-.05-.02-.04-.04-.09-.06-.14-.04-.1-.07-.17.03-.06l.08.18c0-.24.25-.01.24-.25.02.05.05.11.04.11.1.14.09-.01.02-.13.02,0,.06.11.11.17.07.08-.05-.21.05-.06.02.02.02.05.02.06-.02-.08.08,0-.03-.17.08.07.03-.1.12,0-.09-.21.12.08-.03-.22.15.31.19.23.14.08.04.1.07.09.13.23.03-.01.02-.08-.06-.24.24.37-.05-.34.22.15,0-.2.02-.34.06-.45.15.34-.07.06.1.41,0-.16-.09-.47.02-.41.04.04.06.16.08.22,0-.17.15,0,.12-.22.01.03.02.07.03.1,0-.02.05.04-.02-.12v.05c-.11-.23-.15-.52-.2-.64.17.48.11.1.32.71,0-.03-.03-.12-.07-.23.02.03.05.09.09.22,0-.11-.08-.28-.04-.29.03.08.04.11.07.21-.04-.16-.09-.33-.03-.27.02.05.05.11.04.11.04-.04-.06-.46.05-.33.11.36.06.11.18.41v-.1s-.07-.14-.07-.14c.03,0-.02-.24.04-.15l.02.13.03-.08-.07-.1c-.02-.17-.14-.38-.07-.31,0,.03.03,0,.11.17h0c-.02-.1-.04-.21.01-.14.03.1.11.33.13.4-.07-.26.04-.1-.02-.37.01.06.06.22.08.25l-.05-.21c.03.06.05.09.08.21.05.02-.13-.37-.03-.23,0,.02.01.05.01.08.07.06.06-.16.13-.08.1.28-.02.09.07.33.04-.09.03-.41.11-.36l-.02-.03c-.09-.39.1.18.08-.02,0,.03.04.22.03.17.05.04.06-.15.1-.28v.09c.05.07.09.02.12.04,0-.09,0-.08-.02-.2.16.41.12-.3.26.02,0,0-.01.07,0,.07l.05-.09c-.02-.11-.02-.06-.04-.14,0,0,0,0,0,0,.01,0,.02,0,.03-.02.01.05.03.09.04.12v-.1c.02.11,0,0,0-.06,0,0,.02-.02.03-.03v.05s.03-.06.04-.07c0,0,0,0,.01,0,0,.08-.02.04,0,.12.02-.01.03-.08.04-.11,0,0,.02,0,.03,0,0,.02-.02.03-.03.06.04.11.04.08.06.09h0s.05.03.05.03v-.02c0-.09,0-.11.02-.13.02,0,.04.01.06.02,0,.01.01.02.01.06.01.02.03.04.03.07.02-.08.04.03.07-.07,0,.02.02,0,.02.05.03-.03,0-.04,0-.07,0,0,0,0,0,0,.5.15.02-.04.48.08.02.03.16.06.19.13.09.13.21.28.31.41.2.26.32.42.02.1.36.37.53.75.71,1.09.2.33.31.65.42,1,.12.34.25.7.31,1.16.09.45.19.97.22,1.64,0-.29,0-.62.03-.45.04.48.04,1.1,0,1.03v-.13c.06,1.5-.15,3.23-.48,4.85-.34,1.62-.74,3.16-.99,4.33l.03-.13c-.18.81-.39,1.62-.59,2.42-.34,1.1.14-.68-.14.13-.65,2.61-1.27,4.09-1.75,6.26-.7,1.59-1.65,5.87-2.54,8.03l.11-.11c-.11.59-.26.68-.41,1.09.08-.04.26-.6.19-.23-1.43,4.87-3.43,9.91-5.41,14.71-.72,1.76.13,1.2-1,3.34l.06-.7c-1.19,3.66-2.94,7.28-4.23,10.81.04-.23-.02-.26.12-.6-.47.66-1.16,2.69-1.04,2.76-.25.53-.17.07-.38.38-.42.68-.61,1.91-.94,2.23-.06.05.04-.23.09-.36-.13.51-1.01,2.2-.62,1.83-.68,1.24-1.06,2.48-1.64,3.45-.06.51-.55,1.29-.81,1.85-.04-.02-.06-.02,0,0,0,0,0,0,0,0,0,0,0,0,0,0,0,0,0,0,0,0,0,0,0,0,0,0l-.04-.02s.02.02.04.03c0,0,0,.01,0,.02-.02-.01-.05-.02-.07-.03.09.06-.07,0-.21-.06l.12.06s-.01,0-.01,0c-.01,0-.03-.01-.04-.02-.04-.02,0,0,.04.02,0,0,.02.01.03.02-.02,0-.03-.02-.04-.02.06.03.12.06.17.09,0,0,0,0,0,0-.03-.01-.06-.03-.11-.05.05.03.09.04.11.05,0,0,0,0,0,0-.1-.04-.19-.08-.19-.08-.09-.04.07.04.18.1,0,0,0,0,0,0,0,0,0,0,0,0-.05-.02-.08-.03-.13-.05.04.02.08.04.1.05-.14-.06-.01,0-.11-.03.04.02.09.04.12.06,0,0,0,0,0,.01h0s0,0,0,0c0,0,0,0-.01,0,0,0,0,0,.01,0,0,0,0,0,0,0-.1-.05-.22-.11-.29-.14.18.09-.12-.05-.16-.06l-.07-.04s.04.03.04.03l.19.09s-.03-.02-.11-.05c.1.05.25.12.4.19,0,0,0,0,0,0,0,0,0,0,0,0-.02,0-.03-.01-.06-.03.09.03-.25-.12-.29-.15.03.02.03.02,0,0-.03-.01-.05-.03-.06-.03-.22-.1.28.14.27.14-.14-.07-.26-.13-.23-.11,0,0,.23.11.34.17-.08-.03,0,0,.04.03,0,0,0,.01,0,.02,0,0,0,0,0,0-.09-.04-.23-.11-.29-.14.18.09-.18-.08-.04,0,.18.09.14.07.31.15l-.13-.07.13.07s0,0,0,0l-.17-.08c-.19-.09.23.13.12.09l.04.02s0,0,0,0c-.05-.03-.1-.05-.15-.07.08.04.04.02.15.08,0,0,0,0,0,0l-.06-.03s0,0,.05.03c0,0,0,0,0,0-.02,0-.04-.02-.05-.03,0,0,0,0,.05.03,0,.01,0,.02-.01.04-.06-.03-.11-.06-.08-.04l.08.04c-.03.11-.04.2,0,.26-.21-.19-.93,1.23-1.34,2.27-.22.33-.45.66-.67.99,0,0,0,0,0-.02-.02.03-.03.06-.05.1-.09.14-.18.27-.27.41-.11.17-.12.29-.11.39-.18.4-.28.71-.22.78,0,0,0,0,0,.01l-.06-.3c-.43,1.27-1.37,2.33-1.81,3.57,0-.09-.07-.13,0-.24-.28.16-.51.87-.39.94-.11.17-.13-.02-.26.05-.23.19-.15.7-.38.74-.04,0-.01-.09,0-.14-.02.2-.44.71-.17.66-.33.37-.38.85-.68,1.13.08.33-.52.66-.27.9-.28-.2-.68.59-.69.94-.04-.14-.23.18-.3,0-.18.3-.28.61-.09.65-.7.34-.36,1.29-1.03,1.32-.38.98-.76,1.88-1.17,2.72-.31-.22.5-.9.15-1.07-.33.84-.32,1.44-.87,2.14-.17.17-.07-.2-.09-.3-.34.83-.94,1.43-1.18,2.21-.03-.02-.02-.11,0-.2-.07.14-.24.27-.08.35l.04-.15c.08-.02.13.02.16.09-.2.31-.41.62-.61.92-.06-.02-.12-.08-.19-.22-.03.1-.03.26.09.3-.11.11-.2.11-.23-.09-.2.48-.01.48-.19.8-.02.02-.03.05-.04.07-.06-.05-.04-.15-.1-.24,0,.14,0,.29-.03.44-.1.15-.2.31-.3.46-.03-.02-.05-.04,0-.11-.08.13-.13.27-.18.4-.08.12-.15.24-.23.37v-.13c-.09.1-.11.2-.11.3-.16.26-.33.52-.48.78-.03,0-.06,0-.09.03.02-.05.05-.1.07-.14-.05.07-.1.14-.15.21-.07.06-.15.12-.27.06l-.16.41.13-.03c-.06.1-.08.17-.04.21-.28.32-.54.65-.67,1.07-.03-.04-.09-.1-.02-.21-.22.29-.99,1-.58,1.14-.09-.06-.19.03-.28.19,0-.06,0-.13.01-.22-.12.23-.24.51-.19.59-.01.04-.03.07-.04.11-.24.25-.35.28-.2-.11-.77,1.15-.51,1.07-.99,1.76l-.19.08.05.11c-.05.07-.09.13-.15.21,0,0,0-.01,0-.02.01-.03.02-.06,0-.08.02-.11.1-.27.1-.4-.06.12-.12.25-.17.38,0,0,0,0-.01,0-.18.28-.33.6-.48.92-.1.16-.21.33-.34.51-.15-.01-.36.17-.36-.19-.05.19-.12.47-.21.73-.14.19-.28.37-.4.55,0,0,0,0,0,0v-.05c-.06.07-.1.14-.13.23-.1.09-.17.14-.25.24-.14-.05-.35.34-.49.51.11.07.06.18.1.21-.12.19-.25.38-.38.57-.11.06-.21.1-.27.09-.24.43-.62.92-.8,1.35-.09.1-.18.2-.27.3,0,0,.01-.02.01-.03,0,.02-.02.04-.03.05-.13.15-.26.29-.41.44.17-.76-.62.51-.94.39l-.75,1,.45-.27c-.73.82-1.18,1.72-1.93,2.32l.47-.68-1.37,1.53.89-.76c-.65.92.38.19-.7,1.19.18-.24-.76.79-1.29,1.08h0c-.3.47-.62.93-1.26,1.45-.22.08-.12-.37-.27-.32-.19.57-1.8,1.83-2.11,2.49.12-.2.02-.33-.06-.31l-.19.46c-.42.29-.5.31-.53.16-1.16.99.63-.02-.84,1.05.1-.11.02-.09.23-.3-1.42,1.14-2.6,2.39-3.98,3.34-.57.07,1.1-.96.5-.82-1.84,1.54-3.76,3.31-5.77,4.5l.38-.21c-.06.52-1.57.77-2.5,1.51.24-.17.22-.38.17-.3-1.4.75-2.78,1.69-4.96,2.75l.24-.21c-.89.31-2.31.89-3.28,1.17-.25.19-.82.32-.44.35-1.56.24-2.99.61-4.4.9-1.42.26-2.84.41-4.21.19.33,0,.79-.05.53-.05-.78.04-1.56-.04-2.35-.09.17.14.3.09.78.23-.31.05-.98.03-1.56-.09,1.07.11.02-.17-.42-.3.07.04-.09.05-.06.09-1.17-.45-.25.17-1.87-.37l.1-.02c-.6-.19-1.2-.27-1.82-.56-.22-.2.64.21.72.12-.9-.32-1.85-.51-2.57-1.02.37.17.9.43,1.29.55-.82-.45-.91-.53-1.52-.84-.02-.01-.04-.03-.06-.04-.24-.13-.47-.26-.7-.42.09.07.17.11.25.16-.28-.17-.55-.35-.83-.53l.34.24c-.57-.21-1.1-.52-1.63-.93-.25-.21-.6-.39-.73-.58.14-.24.34-.6.52-.96ZM122.87,456.47c.27-.5.55-.99.82-1.49-.14.28-.35.69-.78,1.46,0,0-.03.02-.04.03ZM125.06,453.08c-.22.24-.49.46.58-1.53-.35.65-1.23,2.34-1.98,3.62l.72-1.41c.77-1.39,1.54-2.77,2.31-4.16.55-.77.71-.84-1.63,3.48ZM161.02,389.57c-1.63,2.79-3.7,6.34-5.53,9.48.02-.05-.07.09-.25.39,2-3.43,4-6.86,6.01-10.28-.08.14-.16.27-.24.41ZM185.53,348.2c-1.29,2.1-2.98,4.93-4.53,7.52,1.61-2.71,3.22-5.42,4.83-8.13-1.1,1.89.82-1.33-.3.6ZM187.98,344.04c-.53.88-1.52,2.52-1.6,2.63.65-1.09,1.29-2.18,1.94-3.27l-.34.64ZM191.56,338.24l-2.69,4.25c1.69-2.82,3.4-5.63,5.09-8.45-1.54,2.61.96-1.51-2.41,4.21ZM209.43,308.49c-.45.73-.82,1.31-.67,1.05,1.1-1.82,2.23-3.69,3.37-5.58l-2.7,4.53Z"/>
      <path fill="#8d2020" class="cls-1" d="M691.46,382.17c-.08-.05-.06-.12-.19-.09.26-.17.17-.39.09-.56-.09-.18-.18-.33-.07-.53.01.04.08.09.08.05-.05-.09-.09-.19-.15-.27-.1.05-.05.05-.11.13-.08-.02-.15-.08-.17-.14.1.1.17-.05.2-.12-.03.02-.07.01-.1.03.12-.2-.2.04-.16-.18h.05c-.06-.07-.14-.1-.16-.18.08-.08.08.05.16.02-.06-.1-.28-.11-.25-.24.05.03.08.09.13.12.04-.15,0-.15-.02-.23h0c-.02-.06-.05-.11-.08-.18v.06c-.27.02-.21-.21-.45-.26.22.05.07-.02.15-.07-.02-.05-.06-.12-.02-.12-.11-.02-.09-.13-.26-.15.01-.02-.08-.06-.02-.09-.11-.06,0,.05-.03.06-.19-.05-.32-.3-.61-.34-.2-.06-.27-.04-.43-.09-.01,0-.03-.01-.04-.02-.02-.03.08-.01.08-.01-.09-.06-.17-.09-.27-.12.02,0,0-.02-.02-.04-.08-.03-.07.01-.16-.04.02,0,.05-.01.09,0-.08-.02-.21-.06-.29-.08-.02-.03.07,0,.1,0-.07-.03-.16-.06-.23-.08.09.02.12.06.12.08l-.07-.02c.04.08.27.11.4.17h-.06c-.33-.14-.65-.29-1.01-.46,0,0,0,0-.01,0,.01,0,.03-.02.03-.03,0,0,.02.01.04.02h.05s-.08-.04-.08-.04c0,0,0,0,0,0,0-.02-.03-.05-.13-.1l-.16-.04-.04-.04s-.03,0-.05,0c0-.01-.03-.03-.06-.04l-.16-.02s.08,0-.02-.05c-.08,0,.06.06-.06.03-.07-.04-.04-.05-.14-.06,0-.01.01-.02.05-.01-.08,0-.21-.05-.26-.04-.07-.05-.27-.04-.26-.1-.03,0-.15,0-.22,0,.14-.05-.28-.04-.25-.12-.1.06-.38,0-.56.04,0,0,.03-.02.05-.02-.1,0-.14-.04-.21-.06,0,.08-.17.1-.24.17-.14-.08.06-.11,0-.2.02.07-.21.08-.16.15-.11-.05-.09-.02-.16-.1.01.13-.09.03-.15.12-.16-.05-.07-.13-.22-.07-.09-.04.04-.1.04-.1-.17,0-.05.12-.06.18-.18.06-.11-.07-.2-.13-.11.04-.17.17-.25.19-.01-.02-.03-.02-.02-.06-.09.13-.37.07-.45.26-.02-.01-.03-.02-.03-.03.05.07.09.15.1.2-.07.02-.08.14-.15.05.04-.01.03-.05.03-.09l-.05.07c-.12-.13.07-.08.03-.19-.12.08-.22.27-.35.26-.09-.15.22-.13.02-.22h.19c-.22-.19.11,0-.11-.22-.25,0-.22.13-.46.16,0,.11.08.13.07.24-.22.28-.44-.35-.56-.05,0,.14.09.38-.12.31l-.05-.23c-.21.05.04.35-.24.29,0-.1.12-.13.08-.15-.22-.12-.03.16-.13.2l-.12-.19c-.19.11-.34.36-.55.5-.02-.07-.02-.15-.1-.19-.23.23-.62.25-.96.26v.24s-.09-.06-.09-.11c-.14-.02.06.12.05.22-.05.04-.14-.07-.13-.15-.1.26-.34.62-.64.53v-.08c-.18,0,.04.48-.19.38v-.05c-.35.11-.62.47-1,.37.08.27-.36.1-.21.44-.26-.04-.25-.13-.54-.06-.07.04,0,.25-.06.34l-.09-.15-.02.23-.16-.13-.05.09s.1.02.12.06c-.08.14-.35.11-.37.03-.05.09-.12.19-.2.29-.02-.06.02-.11.04-.16-.09.23-.09-.12-.18.1.03.01.03.08.04.11-.11-.03-.3.1-.42.25l-.02-.09c-.28.2-.53.67-.52,1.09.04-.14.17-.08.17.03l-.11.03c.07.07.04-.11.12.04,0,.13-.12.09-.16,0l.05.17s-.05-.03-.09-.04c.07.07-.06.29.07.36h-.03c.09.32.15.42.23.65.07-.01.09.08.16.13.03.17.03.37.11.56.08.13.07.02.13.07-.06.03.01.22-.06.14.09.23.11.3.26.57.01-.04.01-.08.04-.07.03.05.02.13-.01.13h-.01c.1.14.12.34.14.54.01.18.04.44.25.57.11.1.26.17.39.18.17.07-.12.02,0,.11.45-.02.54.11.82.07.18.29.7.08.95.32v-.08c.06-.06.07.06.12.08,0-.06-.07-.08-.03-.11.59,0,1.19.31,1.8.52.22.07.14-.52.41-.24l-.08.19c.45-.19.92.12,1.36-.08-.03.05-.03.12-.07.12.1.17.35.03.35-.11.07.02.02.13.06.2.1.11.23-.21.29-.04,0,.03-.02.06-.04.07.06-.08.29.03.22-.18.17.1.32-.09.45.03.07-.23.29.11.3-.22,0,.34.31.27.41.1-.03.11.1.1.07.25.12,0,.23-.08.19-.26.27.42.41-.37.6.17.34-.22.66-.39.97-.53.05.37-.35.09-.28.47.3-.19.41-.54.74-.5.09.04,0,.17-.02.24.28-.21.63-.09.85-.38,0,.03,0,.08-.03.12.05-.03.15.02.09-.15l-.04.06c-.16-.22.05-.58.01-.71.08.51.3.03.38.69.03-.04.04-.14,0-.25.06.01.11.07.1.22.16-.16.02-.31.2-.38.03.08.01.13.03.23.03-.19.04-.38.22-.38.01.05.06.11.02.12.24-.14.22-.61.54-.63.13.36.15.04.35.3l.08-.18-.15-.09c.12-.08.07-.35.23-.34v.17s.16-.22.16-.22h-.19c0-.21-.28-.29-.09-.34,0,.05.1-.08.28,0-.02-.12-.05-.24.07-.25.09.05.24.26.3.3-.14-.23.16-.29,0-.53.03.06.15.18.18.19l-.12-.18c.09,0,.12.01.21.11.15-.12-.33-.22-.07-.27,0,.02.03.04.03.09.21-.11.16-.41.36-.5.27.14-.05.18.19.29.13-.27.06-.68.28-.91l-.06.03c-.32-.24.28-.09.18-.33.01.05.17.15.14.12.15-.17.08-.46.04-.78l.08.06c.11-.1.11-.31.15-.44ZM680.85,379.08s-.09-.05-.16-.08c.04,0,.08-.03.12-.05.04.06.06.12.03.13ZM680.96,378.86h0s.05-.04.06-.04c-.01,0-.03.02-.06.04ZM688.7,378.62l.12.02s.01.03,0,.04c-.04-.02-.08-.04-.12-.06ZM689.43,378.98s.03-.02.1,0c0,.02.01.05.02.08-.04-.02-.07-.05-.11-.07ZM689.72,379.16s0,0,0,0c0,0,0,0,.01.01,0,0-.01,0-.02-.01ZM691.03,381.45s0-.06-.01-.09c.06,0,.11.01.15.08-.04,0-.09.01-.14.01Z"/>
    </g>
  </g>
  <g id="__1" data-name=" 1">
    <g>
      <path class="cls-2" d="M56.14,365.67c0-2.69-.03-5.08-.1-7.18-.07-2.09-.16-4.19-.29-6.3.55.07,1.15.12,1.8.17.65.05,1.38.07,2.19.07,1.39,0,2.85-.04,4.38-.12,1.52-.08,2.98-.12,4.38-.12s2.79.15,3.99.44c1.2.29,2.24.74,3.11,1.34.88.6,1.55,1.38,2.02,2.33.47.96.71,2.1.71,3.43s-.28,2.47-.83,3.43c-.55.96-1.22,1.75-2.02,2.38-.79.63-1.65,1.13-2.58,1.48-.92.36-1.76.6-2.51.73v.1c.75.03,1.62.2,2.63.51,1,.31,1.96.79,2.87,1.43.91.65,1.68,1.48,2.31,2.51.63,1.02.95,2.26.95,3.72,0,1.75-.32,3.24-.95,4.48-.63,1.23-1.48,2.24-2.53,3.02-1.05.78-2.26,1.32-3.62,1.63-1.36.31-2.77.46-4.23.46-1.3,0-2.51-.02-3.62-.05-1.12-.03-2.29-.05-3.53-.05h-2.7c-.92,0-1.66.03-2.21.1.13-2.01.23-4.06.29-6.15.06-2.09.1-4.48.1-7.18v-6.62ZM71.12,360.66c0-.78-.09-1.52-.27-2.21-.18-.7-.48-1.3-.9-1.8-.42-.5-.96-.91-1.61-1.22-.65-.31-1.46-.46-2.43-.46-.71,0-1.21,0-1.48.02-.28.02-.58.06-.9.12-.07,1.2-.11,2.42-.15,3.65-.03,1.23-.05,2.27-.05,3.11s0,1.71.02,2.51c.02.79.02,1.61.02,2.46h2.19c.68,0,1.35-.13,2.02-.39.66-.26,1.26-.64,1.78-1.14.52-.5.94-1.14,1.27-1.92.32-.78.49-1.69.49-2.72ZM71.46,376.37c0-2.27-.51-3.96-1.53-5.08-1.02-1.12-2.51-1.68-4.45-1.68-.45,0-.84,0-1.17.02-.32.02-.63.02-.92.02,0,.68,0,1.39-.02,2.12-.02.73-.02,1.6-.02,2.6,0,.78,0,1.57.02,2.38.02.81.02,1.61.02,2.38s0,1.49.02,2.14c.02.65.02,1.18.02,1.61.45.03.88.06,1.26.07.39.02.86.02,1.41.02.71,0,1.39-.15,2.04-.44.65-.29,1.22-.72,1.7-1.29.49-.57.88-1.26,1.17-2.07.29-.81.44-1.75.44-2.82Z"/>
      <path class="cls-2" d="M106.49,363.6c.65-1.18,1.28-2.42,1.9-3.72.62-1.3,1.22-2.6,1.8-3.92.58-1.31,1.15-2.57,1.7-3.77.36.07.72.12,1.09.17.37.05.75.07,1.14.07s.77-.02,1.14-.07c.37-.05.77-.1,1.19-.17-.55.91-1.24,2.1-2.07,3.58-.83,1.48-1.71,3.07-2.65,4.79-.94,1.72-1.89,3.48-2.85,5.28-.96,1.8-1.82,3.46-2.6,4.99,0,.78-.02,1.57-.05,2.36-.03.79-.05,1.6-.05,2.41,0,1.65.02,3.29.07,4.91.05,1.62.19,3.32.41,5.11-.68-.07-1.37-.1-2.07-.1h-4.13c-.7,0-1.39.03-2.07.1.06-1.49.18-3.02.34-4.57.16-1.56.24-3.11.24-4.67,0-.75,0-1.5-.02-2.26-.02-.76-.04-1.52-.07-2.26-.81-1.62-1.74-3.43-2.8-5.42-1.05-1.99-2.08-3.93-3.06-5.81-.99-1.88-1.9-3.58-2.72-5.11-.83-1.52-1.44-2.63-1.82-3.31.75.07,1.48.12,2.19.17.71.05,1.44.07,2.19.07s1.47-.02,2.16-.07c.7-.05,1.42-.1,2.16-.17.55,1.2,1.18,2.53,1.87,3.99.7,1.46,1.39,2.89,2.07,4.28.68,1.39,1.31,2.66,1.9,3.79.58,1.14,1.05,1.98,1.41,2.53h.1c.65-.94,1.3-2,1.95-3.19Z"/>
      <path class="cls-2" d="M121.23,366.45c0-1.1.39-2.04,1.17-2.82.78-.78,1.72-1.17,2.82-1.17s2.04.39,2.82,1.17c.78.78,1.17,1.72,1.17,2.82s-.39,2.04-1.17,2.82-1.72,1.17-2.82,1.17-2.04-.39-2.82-1.17-1.17-1.72-1.17-2.82ZM121.23,382.41c0-1.1.39-2.04,1.17-2.82.78-.78,1.72-1.17,2.82-1.17s2.04.39,2.82,1.17c.78.78,1.17,1.72,1.17,2.82s-.39,2.02-1.17,2.75c-.78.73-1.72,1.09-2.82,1.09s-2.04-.36-2.82-1.09c-.78-.73-1.17-1.65-1.17-2.75Z"/>
    </g>
  </g>
</svg>